<?xml version="1.0" encoding="UTF-8" standalone="no"?>
<!-- Created with Inkscape (http://www.inkscape.org/) -->

<svg
   xmlns:dc="http://purl.org/dc/elements/1.1/"
   xmlns:cc="http://creativecommons.org/ns#"
   xmlns:rdf="http://www.w3.org/1999/02/22-rdf-syntax-ns#"
   xmlns:svg="http://www.w3.org/2000/svg"
   xmlns="http://www.w3.org/2000/svg"
   xmlns:inkscape="http://www.inkscape.org/namespaces/inkscape"
   version="1.1"
   width="32"
   height="32.012817"
   id="svg2"
   xml:space="preserve"><metadata
     id="metadata8"><rdf:RDF><cc:Work
         rdf:about=""><dc:format>image/svg+xml</dc:format><dc:type
           rdf:resource="http://purl.org/dc/dcmitype/StillImage" /></cc:Work></rdf:RDF></metadata><defs
     id="defs6" /><g
     transform="matrix(1.25,0,0,-1.25,0,32.012818)"
     id="g10"><g
       id="g12"><g
         transform="matrix(1,0,0,-1,0,25.610254)"
         id="g14"><path
           d="m 10.535,8.398 c -0.535,0 -1.601,2.403 -2.137,2.403 l -1.332,0 C 6.801,10.801 6.801,10 6.535,10 l -2.402,0 c -0.266,0 -0.266,0.801 -0.531,0.801 l -0.536,0 c -0.8,0 -1.867,1.066 -1.867,1.867 l 0,10.398 c 0,0.801 1.067,2.133 1.867,2.133 l 18.668,0 c 0.801,0 1.868,-1.332 1.868,-2.133 l 0,-10.398 c 0,-0.801 -1.047,-1.871 -1.868,-1.867 -1.066,0 -1.336,0 -2.132,0 -0.536,0 -1.602,-2.403 -2.137,-2.403 l -6.93,0 z"
           inkscape:connector-curvature="0"
           id="path16"
           style="fill:#444444;fill-opacity:1;fill-rule:nonzero;stroke:#000000;stroke-width:0.80000001;stroke-linecap:square;stroke-linejoin:round;stroke-miterlimit:4;stroke-opacity:1;stroke-dasharray:none" /></g><g
         transform="matrix(1,0,0,-1,0,25.610254)"
         id="g18"><path
           d="m 18.801,17.602 c 0,2.648 -2.149,4.796 -4.801,4.796 -2.652,0 -4.801,-2.148 -4.801,-4.796 0,-2.653 2.149,-4.801 4.801,-4.801 2.652,0 4.801,2.148 4.801,4.801 z"
           inkscape:connector-curvature="0"
           id="path20"
           style="fill:#858585;fill-opacity:1;fill-rule:nonzero;stroke:#000000;stroke-width:0.80000001;stroke-linecap:square;stroke-linejoin:round;stroke-miterlimit:4;stroke-opacity:1;stroke-dasharray:none" /></g><path
         d="m 6,11.61 c 0,-0.441 -0.359,-0.801 -0.801,-0.801 -0.441,0 -0.801,0.36 -0.801,0.801 0,0.442 0.36,0.801 0.801,0.801 C 5.641,12.411 6,12.052 6,11.61 z"
         inkscape:connector-curvature="0"
         id="path22"
         style="fill:#aaaaaa;fill-opacity:1;fill-rule:evenodd;stroke:none" /><g
         transform="matrix(1,0,0,-1,0,25.610254)"
         id="g24"><path
           d="M 12,5.602 C 13.602,3.199 19.199,2.398 21.199,2 L 20.961,0.801 24.801,2 21.84,4.801 21.602,3.602 c -2.219,0.671 -3.204,2 -4,2.796 L 12,5.602 z"
           inkscape:connector-curvature="0"
           id="path26"
           style="fill:#8d8d8d;fill-opacity:1;fill-rule:nonzero;stroke:#000000;stroke-width:0.80000001;stroke-linecap:butt;stroke-linejoin:miter;stroke-miterlimit:4;stroke-opacity:1;stroke-dasharray:none" /></g></g></g></svg>