<?xml version="1.0" encoding="UTF-8" standalone="no"?>
<!-- Created with Inkscape (http://www.inkscape.org/) -->

<svg
   width="9.0311489mm"
   height="9.0311356mm"
   viewBox="0 0 32.000135 32.000088"
   id="svg8611"
   version="1.1"
   inkscape:version="1.1.2 (0a00cf5339, 2022-02-04)"
   sodipodi:docname="database.svg"
   xmlns:inkscape="http://www.inkscape.org/namespaces/inkscape"
   xmlns:sodipodi="http://sodipodi.sourceforge.net/DTD/sodipodi-0.dtd"
   xmlns="http://www.w3.org/2000/svg"
   xmlns:svg="http://www.w3.org/2000/svg"
   xmlns:rdf="http://www.w3.org/1999/02/22-rdf-syntax-ns#"
   xmlns:cc="http://creativecommons.org/ns#"
   xmlns:dc="http://purl.org/dc/elements/1.1/">
  <defs
     id="defs8613" />
  <sodipodi:namedview
     id="base"
     pagecolor="#ffffff"
     bordercolor="#666666"
     borderopacity="1.0"
     inkscape:pageopacity="0.0"
     inkscape:pageshadow="2"
     inkscape:zoom="6.2613998"
     inkscape:cx="15.651452"
     inkscape:cy="13.655094"
     inkscape:document-units="px"
     inkscape:current-layer="rescan"
     showgrid="false"
     fit-margin-top="0"
     fit-margin-left="0"
     fit-margin-right="0"
     fit-margin-bottom="0"
     inkscape:window-width="2560"
     inkscape:window-height="1417"
     inkscape:window-x="0"
     inkscape:window-y="0"
     inkscape:window-maximized="1"
     inkscape:pagecheckerboard="0"
     inkscape:object-paths="false"
     inkscape:snap-nodes="false"
     inkscape:snap-bbox="true"
     inkscape:bbox-nodes="true"
     inkscape:snap-bbox-edge-midpoints="true"
     inkscape:snap-intersection-paths="true"
     inkscape:snap-grids="true">
    <inkscape:grid
       type="xygrid"
       id="grid5654" />
  </sodipodi:namedview>
  <metadata
     id="metadata8616">
    <rdf:RDF>
      <cc:Work
         rdf:about="">
        <dc:format>image/svg+xml</dc:format>
        <dc:type
           rdf:resource="http://purl.org/dc/dcmitype/StillImage" />
      </cc:Work>
    </rdf:RDF>
  </metadata>
  <g
     inkscape:label="Layer 1"
     inkscape:groupmode="layer"
     id="layer1"
     transform="translate(-501.43926,-555.73716)">
    <g
       id="rescan"
       inkscape:label="#g6397"
       transform="matrix(0.99973199,0,0,1.0000001,548.43074,-175.6251)">
      <path
         id="ellipse7391-3"
         style="fill:#383838;fill-opacity:1;stroke:none;stroke-width:0.0937626;stroke-opacity:1"
         d="m -17.933785,752.11923 c 1e-6,2.67392 -5.877838,4.84155 -13.128519,4.84155 -7.250682,0 -13.128521,-2.16763 -13.12852,-4.84155 v 4.4014 c -10e-7,2.67392 5.877838,4.84156 13.12852,4.84156 7.250681,0 13.12852,-2.16764 13.128519,-4.84156 z"
         sodipodi:nodetypes="csccscc" />
      <path
         id="ellipse7391-3-0"
         style="fill:#383838;fill-opacity:1;stroke:none;stroke-width:0.0937626;stroke-opacity:1"
         d="m -17.933785,746.00129 c 1e-6,2.67391 -5.877838,4.84155 -13.128519,4.84155 -7.250682,0 -13.128521,-2.16764 -13.12852,-4.84155 v 4.4014 c -10e-7,2.67391 5.877838,4.84155 13.12852,4.84155 7.250681,0 13.12852,-2.16764 13.128519,-4.84155 z"
         sodipodi:nodetypes="csccscc" />
      <path
         id="ellipse7391-3-3"
         style="fill:#383838;fill-opacity:1;stroke:none;stroke-width:0.0937626;stroke-opacity:1"
         d="m -17.933785,739.83931 c 1e-6,2.67392 -5.877838,4.84155 -13.128519,4.84155 -7.250682,0 -13.128521,-2.16763 -13.12852,-4.84155 v 4.4014 c -10e-7,2.67392 5.877838,4.84155 13.12852,4.84155 7.250681,0 13.12852,-2.16763 13.128519,-4.84155 z"
         sodipodi:nodetypes="csccscc" />
      <path
         id="ellipse7391-3-3-6"
         style="fill:#727272;fill-opacity:1;stroke:none;stroke-width:0.0937626;stroke-opacity:1"
         d="m -31.062305,733.23719 c -7.250682,0 -13.12852,2.16763 -13.128519,4.84155 -10e-7,2.67391 5.877837,4.84155 13.128519,4.84155 7.250681,0 13.12852,-2.16764 13.128519,-4.84155 1e-6,-2.67392 -5.877838,-4.84155 -13.128519,-4.84155 z" />
    </g>
  </g>
</svg>
