<?xml version="1.0" encoding="UTF-8" standalone="no"?>
<!-- Created with Inkscape (http://www.inkscape.org/) -->

<svg
   xmlns:dc="http://purl.org/dc/elements/1.1/"
   xmlns:cc="http://creativecommons.org/ns#"
   xmlns:rdf="http://www.w3.org/1999/02/22-rdf-syntax-ns#"
   xmlns:svg="http://www.w3.org/2000/svg"
   xmlns="http://www.w3.org/2000/svg"
   xmlns:inkscape="http://www.inkscape.org/namespaces/inkscape"
   version="1.1"
   width="32"
   height="32"
   id="svg2"
   xml:space="preserve"><metadata
     id="metadata8"><rdf:RDF><cc:Work
         rdf:about=""><dc:format>image/svg+xml</dc:format><dc:type
           rdf:resource="http://purl.org/dc/dcmitype/StillImage" /></cc:Work></rdf:RDF></metadata><defs
     id="defs6"><clipPath
       id="clipPath20"><path
         d="m 23.602,5.998 0,-4 C 23.602,1.245 22.754,0.401 22,0.401 l -18.398,0 C 2.848,0.401 2,1.245 2,1.998 l 0,12.801 c 0,0.754 0.848,1.602 1.602,1.602 l 4.796,0"
         inkscape:connector-curvature="0"
         id="path22" /></clipPath><clipPath
       id="clipPath28"><path
         d="m -122.99999,918.74999 27.499998,0 0,21.25 -27.499998,0 0,-21.25 z"
         inkscape:connector-curvature="0"
         id="path30" /></clipPath><linearGradient
       x1="-116.25094"
       y1="939.5"
       x2="-106.47651"
       y2="925.26971"
       id="linearGradient32"
       gradientUnits="userSpaceOnUse"
       spreadMethod="pad"><stop
         id="stop34"
         style="stop-color:#ffffff;stop-opacity:1"
         offset="0" /><stop
         id="stop36"
         style="stop-color:#ffffff;stop-opacity:0.63909364"
         offset="0.47838199" /><stop
         id="stop38"
         style="stop-color:#ffffff;stop-opacity:0"
         offset="1" /></linearGradient><mask
       id="mask40"><g
         id="g42"><g
           clip-path="url(#clipPath28)"
           id="g44"><path
             d="m -122.99999,918.74999 27.499998,0 0,21.25 -27.499998,0 0,-21.25 z"
             inkscape:connector-curvature="0"
             id="path46"
             style="fill:url(#linearGradient32);stroke:none" /></g></g></mask><linearGradient
       x1="-116.25094"
       y1="939.5"
       x2="-106.47651"
       y2="925.26971"
       id="linearGradient50"
       gradientUnits="userSpaceOnUse"
       spreadMethod="pad"><stop
         id="stop52"
         style="stop-color:#494949;stop-opacity:1"
         offset="0" /><stop
         id="stop54"
         style="stop-color:#4f4f4f;stop-opacity:1"
         offset="0.47838199" /><stop
         id="stop56"
         style="stop-color:#626262;stop-opacity:1"
         offset="1" /></linearGradient></defs><g
     transform="matrix(1.25,0,0,-1.25,0,32)"
     id="g10"><g
       id="g12"><path
         d="m 9.199,5.998 c 0,5.602 3.199,9.602 8,9.602 l -0.801,4 8,-4.801 -8,-4.801 0.801,4 c -0.801,0 -7.199,0 -7.199,-8 l -0.801,0 z"
         inkscape:connector-curvature="0"
         id="path14"
         style="fill:#000000;fill-opacity:1;fill-rule:nonzero;stroke:none" /><g
         id="g16"><g
           clip-path="url(#clipPath20)"
           id="g18"><g
             transform="matrix(0.8,0,0,-0.8,100.39999,751.59999)"
             id="g24"><g
               id="g26" /><g
               mask="url(#mask40)"
               id="g48"><path
                 d="m 23.602,5.998 0,-4 C 23.602,1.245 22.754,0.401 22,0.401 l -18.398,0 C 2.848,0.401 2,1.245 2,1.998 l 0,12.801 c 0,0.754 0.848,1.602 1.602,1.602 l 4.796,0"
                 inkscape:connector-curvature="0"
                 id="path58"
                 style="fill:url(#linearGradient50);stroke:none" /></g></g></g></g><g
         transform="matrix(1,0,0,-1,0,25.6)"
         id="g60"><path
           d="m 23.602,19.602 0,4 c 0,0.753 -0.848,1.597 -1.602,1.597 l -18.398,0 C 2.848,25.199 2,24.355 2,23.602 L 2,10.801 C 2,10.047 2.848,9.199 3.602,9.199 l 4.796,0"
           inkscape:connector-curvature="0"
           id="path62"
           style="fill:none;stroke:#000000;stroke-width:0.80000001;stroke-linecap:butt;stroke-linejoin:miter;stroke-miterlimit:4;stroke-opacity:1;stroke-dasharray:none" /></g></g></g></svg>