<?xml version="1.0" encoding="UTF-8" standalone="no"?>
<!-- Created with Inkscape (http://www.inkscape.org/) -->

<svg
   xmlns:dc="http://purl.org/dc/elements/1.1/"
   xmlns:cc="http://creativecommons.org/ns#"
   xmlns:rdf="http://www.w3.org/1999/02/22-rdf-syntax-ns#"
   xmlns:svg="http://www.w3.org/2000/svg"
   xmlns="http://www.w3.org/2000/svg"
   xmlns:inkscape="http://www.inkscape.org/namespaces/inkscape"
   version="1.1"
   width="32"
   height="32"
   id="svg2"
   xml:space="preserve"><metadata
     id="metadata8"><rdf:RDF><cc:Work
         rdf:about=""><dc:format>image/svg+xml</dc:format><dc:type
           rdf:resource="http://purl.org/dc/dcmitype/StillImage" /></cc:Work></rdf:RDF></metadata><defs
     id="defs6" /><g
     transform="matrix(1.25,0,0,-1.25,0,32)"
     id="g10"><g
       id="g12"><path
         d="m 0,25.6 25.602,0 0,-25.602 L 0,-0.002 0,25.6 z"
         inkscape:connector-curvature="0"
         id="path14"
         style="fill:#000000;fill-opacity:1;fill-rule:nonzero;stroke:none" /><path
         d="M 9,5.998 C 9,11.6 12.199,15.6 17,15.6 l -0.801,4 8,-4.801 -8,-4.801 0.801,4 c -0.801,0 -7.199,0 -7.199,-8 L 9,5.998 z"
         inkscape:connector-curvature="0"
         id="path16"
         style="fill:#ffffff;fill-opacity:1;fill-rule:nonzero;stroke:none" /><g
         transform="matrix(1,0,0,-1,0,25.6)"
         id="g18"><path
           d="m 23.398,19.602 0,4 c 0,0.753 -0.843,1.597 -1.597,1.597 l -18.403,0 c -0.753,0 -1.597,-0.844 -1.597,-1.597 l 0,-12.801 c 0,-0.754 0.844,-1.602 1.597,-1.602 l 4.801,0"
           inkscape:connector-curvature="0"
           id="path20"
           style="fill:none;stroke:#ffffff;stroke-width:0.80000001;stroke-linecap:butt;stroke-linejoin:miter;stroke-miterlimit:4;stroke-opacity:1;stroke-dasharray:none" /></g></g></g></svg>