<?xml version="1.0" encoding="UTF-8" standalone="no"?>
<svg
   xmlns:dc="http://purl.org/dc/elements/1.1/"
   xmlns:cc="http://creativecommons.org/ns#"
   xmlns:rdf="http://www.w3.org/1999/02/22-rdf-syntax-ns#"
   xmlns:svg="http://www.w3.org/2000/svg"
   xmlns="http://www.w3.org/2000/svg"
   xmlns:sodipodi="http://sodipodi.sourceforge.net/DTD/sodipodi-0.dtd"
   xmlns:inkscape="http://www.inkscape.org/namespaces/inkscape"
   aria-hidden="true"
   focusable="false"
   data-prefix="far"
   data-icon="eye-slash"
   class="svg-inline--fa fa-eye-slash fa-w-20"
   role="img"
   viewBox="0 0 32 32"
   version="1.1"
   id="svg4"
   sodipodi:docname="eye-slash-regular.svg"
   width="32"
   height="32"
   inkscape:version="0.92.5 (2060ec1f9f, 2020-04-08)">
  <metadata
     id="metadata10">
    <rdf:RDF>
      <cc:Work
         rdf:about="">
        <dc:format>image/svg+xml</dc:format>
        <dc:type
           rdf:resource="http://purl.org/dc/dcmitype/StillImage" />
        <dc:title></dc:title>
      </cc:Work>
    </rdf:RDF>
  </metadata>
  <defs
     id="defs8" />
  <sodipodi:namedview
     pagecolor="#ffffff"
     bordercolor="#666666"
     borderopacity="1"
     objecttolerance="10"
     gridtolerance="10"
     guidetolerance="10"
     inkscape:pageopacity="0"
     inkscape:pageshadow="2"
     inkscape:window-width="3840"
     inkscape:window-height="2117"
     id="namedview6"
     showgrid="false"
     inkscape:zoom="58.96875"
     inkscape:cx="16"
     inkscape:cy="16"
     inkscape:window-x="0"
     inkscape:window-y="0"
     inkscape:window-maximized="1"
     inkscape:current-layer="svg4" />
  <path
     d="M 31.699522,26.749673 1.8004367,3.375883 a 0.79997552,0.79997552 0 0 0 -1.1244656,0.1245 l -0.4999847,0.62448 a 0.79997552,0.79997552 0 0 0 0.12449619,1.12547 L 30.199568,28.624113 a 0.79997552,0.79997552 0 0 0 1.124466,-0.12449 l 0.499985,-0.62449 a 0.79997552,0.79997552 0 0 0 -0.124497,-1.12546 z m -16.859984,-16.226 6.739294,5.26883 c -0.110997,-2.9969 -2.554922,-5.39233 -5.578829,-5.39233 a 5.6128282,5.6128282 0 0 0 -1.160465,0.1235 z m 2.320929,10.95316 -6.739294,-5.26884 c 0.111497,2.99641 2.555422,5.39184 5.57883,5.39184 a 5.6498271,5.6498271 0 0 0 1.160464,-0.123 z M 16.000003,8.800223 c 4.932349,0 9.45421,2.74991 11.896136,7.19978 a 14.276063,14.276063 0 0 1 -2.199933,3.00991 l 1.886942,1.47495 a 16.684489,16.684489 0 0 0 2.644919,-3.75538 1.6174505,1.6174505 0 0 0 0,-1.45946 c -2.713917,-5.29034 -8.081752,-8.86973 -14.228064,-8.86973 -1.834944,0 -3.585391,0.34999 -5.23134,0.94047 l 2.320429,1.81445 c 0.946971,-0.215 1.916941,-0.35499 2.910911,-0.35499 z m 0,14.39956 c -4.932349,0 -9.4537116,-2.74992 -11.8961368,-7.19978 a 14.273063,14.273063 0 0 1 2.2024326,-3.00941 l -1.8869423,-1.47495 a 16.67949,16.67949 0 0 0 -2.6444191,3.75488 1.6174505,1.6174505 0 0 0 0,1.45946 c 2.7114171,5.29033 8.0792528,8.86972 14.2250656,8.86972 1.834944,0 3.58539,-0.35248 5.23134,-0.94047 l -2.320429,-1.81394 c -0.946971,0.21449 -1.916442,0.35449 -2.910911,0.35449 z"
     id="path2"
     inkscape:connector-curvature="0"
     style="fill:currentColor;stroke-width:0.99999994" />
</svg>
