<?xml version="1.0" encoding="UTF-8" standalone="no"?>
<!-- Created with Inkscape (http://www.inkscape.org/) -->

<svg
   xmlns:dc="http://purl.org/dc/elements/1.1/"
   xmlns:cc="http://creativecommons.org/ns#"
   xmlns:rdf="http://www.w3.org/1999/02/22-rdf-syntax-ns#"
   xmlns:svg="http://www.w3.org/2000/svg"
   xmlns="http://www.w3.org/2000/svg"
   xmlns:inkscape="http://www.inkscape.org/namespaces/inkscape"
   version="1.1"
   width="32"
   height="29.426901"
   id="svg2"
   xml:space="preserve"><metadata
     id="metadata8"><rdf:RDF><cc:Work
         rdf:about=""><dc:format>image/svg+xml</dc:format><dc:type
           rdf:resource="http://purl.org/dc/dcmitype/StillImage" /></cc:Work></rdf:RDF></metadata><defs
     id="defs6" /><g
     transform="matrix(1.25,0,0,-1.25,0,29.426901)"
     id="g10"><g
       id="g12"><g
         transform="matrix(1,0,0,-1,0,23.541521)"
         id="g14"><path
           d="m 2,23.137 c -0.754,0 -1.602,-0.946 -1.602,-1.789 l 0,-15.618 C 0.398,4.883 1.246,3.957 2,3.938 l 1.602,0 c 0.753,0 0.843,-1.598 1.597,-1.598 l 4.801,0 c 0.754,0 0.848,1.598 1.602,1.598 l 12,0 c 0.753,0 1.597,0.945 1.597,1.792 l 0,15.618 c 0,0.843 -0.844,1.789 -1.597,1.789 L 2,23.137 z"
           inkscape:connector-curvature="0"
           id="path16"
           style="fill:#eeeeee;fill-opacity:1;fill-rule:nonzero;stroke:#000000;stroke-width:0.80000001;stroke-linecap:butt;stroke-linejoin:miter;stroke-miterlimit:4;stroke-opacity:1;stroke-dasharray:none" /></g><g
         transform="matrix(1,0,0,-1,0,23.541521)"
         id="g18"><path
           d="m 23.199,5.539 c 0,2.871 -2.328,5.199 -5.199,5.199 -2.871,0 -5.199,-2.328 -5.199,-5.199 0,-2.871 2.328,-5.203 5.199,-5.203 2.871,0 5.199,2.332 5.199,5.203 z"
           inkscape:connector-curvature="0"
           id="path20"
           style="fill:#969696;fill-opacity:1;fill-rule:nonzero;stroke:#000000;stroke-width:0.69337499;stroke-linecap:butt;stroke-linejoin:miter;stroke-miterlimit:4;stroke-opacity:1;stroke-dasharray:none" /></g><g
         transform="matrix(1,0,0,-1,0,23.541521)"
         id="g22"><path
           d="m 18,1.539 0,8"
           inkscape:connector-curvature="0"
           id="path24"
           style="fill:none;stroke:#000000;stroke-width:0.80000001;stroke-linecap:butt;stroke-linejoin:miter;stroke-miterlimit:4;stroke-opacity:1;stroke-dasharray:none" /></g><g
         transform="matrix(1,0,0,-1,0,23.541521)"
         id="g26"><path
           d="m 14,5.539 8,0"
           inkscape:connector-curvature="0"
           id="path28"
           style="fill:none;stroke:#000000;stroke-width:0.80000001;stroke-linecap:butt;stroke-linejoin:miter;stroke-miterlimit:4;stroke-opacity:1;stroke-dasharray:none" /></g><g
         transform="matrix(1,0,0,-1,0,23.541521)"
         id="g30"><path
           d="m 2,23.137 c -0.754,0 -1.602,-0.844 -1.602,-1.598 l 0,-12 C 0.398,8.785 1.246,7.938 2,7.938 l 21.602,0 c 0.753,0 1.597,0.847 1.597,1.601 l 0,12 c 0,0.754 -0.844,1.598 -1.597,1.598 L 2,23.137 z"
           inkscape:connector-curvature="0"
           id="path32"
           style="fill:#ffffff;fill-opacity:1;fill-rule:nonzero;stroke:#000000;stroke-width:0.80000001;stroke-linecap:butt;stroke-linejoin:miter;stroke-miterlimit:4;stroke-opacity:1;stroke-dasharray:none" /></g></g></g></svg>