<?xml version="1.0" encoding="UTF-8" standalone="no"?>
<!-- Created with Inkscape (http://www.inkscape.org/) -->

<svg
   xmlns:dc="http://purl.org/dc/elements/1.1/"
   xmlns:cc="http://creativecommons.org/ns#"
   xmlns:rdf="http://www.w3.org/1999/02/22-rdf-syntax-ns#"
   xmlns:svg="http://www.w3.org/2000/svg"
   xmlns="http://www.w3.org/2000/svg"
   xmlns:inkscape="http://www.inkscape.org/namespaces/inkscape"
   version="1.1"
   width="32.003033"
   height="32.012817"
   id="svg2"
   xml:space="preserve"><metadata
     id="metadata8"><rdf:RDF><cc:Work
         rdf:about=""><dc:format>image/svg+xml</dc:format><dc:type
           rdf:resource="http://purl.org/dc/dcmitype/StillImage" /></cc:Work></rdf:RDF></metadata><defs
     id="defs6" /><g
     transform="matrix(1.25,0,0,-1.25,0,32.012818)"
     id="g10"><g
       id="g12"><g
         transform="matrix(0.999732,0,0,-1,0,25.610254)"
         id="g14"><path
           d="m 2.805,25.199 c -0.754,0 -1.602,-0.945 -1.602,-1.789 l 0,-12.609 c 0,-0.844 0.848,-1.602 1.602,-1.602 l 1.599,0 c 0.754,0 0.847,-1.597 1.602,-1.597 l 4.001,0 c 0.754,0 0.844,1.597 1.598,1.597 4.001,0 7.201,-0.191 11.198,-0.191 0.758,0 1.602,0.949 1.602,1.793 l 0,12.609 c 0,0.844 -0.844,1.789 -1.602,1.789 l -19.998,0 z"
           inkscape:connector-curvature="0"
           id="path16"
           style="fill:#515151;fill-opacity:1;fill-rule:nonzero;stroke:#000000;stroke-width:0.800107;stroke-linecap:butt;stroke-linejoin:miter;stroke-miterlimit:4;stroke-opacity:1;stroke-dasharray:none" /></g><g
         transform="matrix(0.999732,0,0,-1,0,25.610254)"
         id="g18"><path
           d="m 23.205,10 c 0,2.871 -2.328,5.199 -5.2,5.199 -2.872,0 -5.201,-2.328 -5.201,-5.199 0,-2.871 2.329,-5.199 5.201,-5.199 2.872,0 5.2,2.328 5.2,5.199 z"
           inkscape:connector-curvature="0"
           id="path20"
           style="fill:#ffffff;fill-opacity:1;fill-rule:nonzero;stroke:#000000;stroke-width:0.69337499;stroke-linecap:butt;stroke-linejoin:miter;stroke-miterlimit:4;stroke-opacity:1;stroke-dasharray:none" /></g><g
         transform="matrix(0.999732,0,0,-1,0,25.610254)"
         id="g22"><path
           d="m 18.005,6 0,8"
           inkscape:connector-curvature="0"
           id="path24"
           style="fill:none;stroke:#000000;stroke-width:0.800107;stroke-linecap:butt;stroke-linejoin:miter;stroke-miterlimit:4;stroke-opacity:1;stroke-dasharray:none" /></g><g
         transform="matrix(0.999732,0,0,-1,0,25.610254)"
         id="g26"><path
           d="m 14.004,10 8.002,0"
           inkscape:connector-curvature="0"
           id="path28"
           style="fill:none;stroke:#000000;stroke-width:0.800107;stroke-linecap:butt;stroke-linejoin:miter;stroke-miterlimit:4;stroke-opacity:1;stroke-dasharray:none" /></g><g
         transform="matrix(0.999732,0,0,-1,0,25.610254)"
         id="g30"><path
           d="m 2.805,25.199 c -0.754,0 -1.539,-0.847 -1.602,-1.597 L 0.406,14 C 0.344,13.25 1.25,12.398 2.004,12.398 l 21.6,0 c 0.754,0 1.664,0.852 1.602,1.602 l -0.801,9.602 c -0.063,0.75 -0.844,1.597 -1.602,1.597 l -19.998,0 z"
           inkscape:connector-curvature="0"
           id="path32"
           style="fill:#7c7c7c;fill-opacity:1;fill-rule:nonzero;stroke:#000000;stroke-width:0.800107;stroke-linecap:butt;stroke-linejoin:miter;stroke-miterlimit:4;stroke-opacity:1;stroke-dasharray:none" /></g></g></g></svg>