<?xml version="1.0" encoding="UTF-8" standalone="no"?>
<!-- Created with Inkscape (http://www.inkscape.org/) -->

<svg
   xmlns:dc="http://purl.org/dc/elements/1.1/"
   xmlns:cc="http://creativecommons.org/ns#"
   xmlns:rdf="http://www.w3.org/1999/02/22-rdf-syntax-ns#"
   xmlns:svg="http://www.w3.org/2000/svg"
   xmlns="http://www.w3.org/2000/svg"
   xmlns:inkscape="http://www.inkscape.org/namespaces/inkscape"
   version="1.1"
   width="32.000004"
   height="32.004265"
   id="svg2"
   xml:space="preserve"><metadata
     id="metadata8"><rdf:RDF><cc:Work
         rdf:about=""><dc:format>image/svg+xml</dc:format><dc:type
           rdf:resource="http://purl.org/dc/dcmitype/StillImage" /></cc:Work></rdf:RDF></metadata><defs
     id="defs6" /><g
     transform="matrix(1.25,0,0,-1.25,0,32.004264)"
     id="g10"><g
       id="g12"><path
         d="m 0,25.603 25.602,0 0,-25.602 -25.602,0 0,25.602 z"
         inkscape:connector-curvature="0"
         id="path14"
         style="fill:#000000;fill-opacity:1;fill-rule:nonzero;stroke:none" /><g
         transform="matrix(1,0,0,-1,0,25.603411)"
         id="g16"><path
           d="m 2,25.199 c -0.754,0 -1.602,-0.945 -1.602,-1.789 l 0,-15.621 C 0.398,6.945 1.246,6.02 2,6 L 3.602,6 C 4.355,6 4.445,4.398 5.199,4.398 l 4.801,0 C 10.754,4.398 10.848,6 11.602,6 l 12,0 c 0.753,0 1.597,0.945 1.597,1.789 l 0,15.621 c 0,0.844 -0.844,1.789 -1.597,1.789 L 2,25.199 z"
           inkscape:connector-curvature="0"
           id="path18"
           style="fill:none;stroke:#ffffff;stroke-width:0.80000001;stroke-linecap:butt;stroke-linejoin:miter;stroke-miterlimit:4;stroke-opacity:1;stroke-dasharray:none" /></g><path
         d="m 23.199,18.002 c 0,-2.871 -2.328,-5.199 -5.199,-5.199 -2.871,0 -5.199,2.328 -5.199,5.199 0,2.875 2.328,5.203 5.199,5.203 2.871,0 5.199,-2.328 5.199,-5.203 z"
         inkscape:connector-curvature="0"
         id="path20"
         style="fill:#969696;fill-opacity:1;fill-rule:nonzero;stroke:none" /><g
         transform="matrix(1,0,0,-1,0,25.603411)"
         id="g22"><path
           d="m 18,3.602 0,8"
           inkscape:connector-curvature="0"
           id="path24"
           style="fill:none;stroke:#ffffff;stroke-width:0.80000001;stroke-linecap:butt;stroke-linejoin:miter;stroke-miterlimit:4;stroke-opacity:1;stroke-dasharray:none" /></g><g
         transform="matrix(1,0,0,-1,0,25.603411)"
         id="g26"><path
           d="m 14,7.602 8,0"
           inkscape:connector-curvature="0"
           id="path28"
           style="fill:none;stroke:#ffffff;stroke-width:0.80000001;stroke-linecap:butt;stroke-linejoin:miter;stroke-miterlimit:4;stroke-opacity:1;stroke-dasharray:none" /></g><g
         transform="matrix(1,0,0,-1,0,25.603411)"
         id="g30"><path
           d="m 2,25.199 c -0.754,0 -1.602,-0.844 -1.602,-1.597 l 0,-12 C 0.398,10.848 1.246,10 2,10 l 21.602,0 c 0.753,0 1.597,0.848 1.597,1.602 l 0,12 c 0,0.753 -0.844,1.597 -1.597,1.597 L 2,25.199 z"
           inkscape:connector-curvature="0"
           id="path32"
           style="fill:#000000;fill-opacity:1;fill-rule:nonzero;stroke:#ffffff;stroke-width:0.80000001;stroke-linecap:butt;stroke-linejoin:miter;stroke-miterlimit:4;stroke-opacity:1;stroke-dasharray:none" /></g></g></g></svg>