<?xml version="1.0" encoding="UTF-8" standalone="no"?>
<!-- Created with Inkscape (http://www.inkscape.org/) -->

<svg
   xmlns:dc="http://purl.org/dc/elements/1.1/"
   xmlns:cc="http://creativecommons.org/ns#"
   xmlns:rdf="http://www.w3.org/1999/02/22-rdf-syntax-ns#"
   xmlns:svg="http://www.w3.org/2000/svg"
   xmlns="http://www.w3.org/2000/svg"
   xmlns:sodipodi="http://sodipodi.sourceforge.net/DTD/sodipodi-0.dtd"
   xmlns:inkscape="http://www.inkscape.org/namespaces/inkscape"
   width="9.0311489mm"
   height="9.0311356mm"
   viewBox="0 0 32.000135 32.000088"
   id="svg8611"
   version="1.1"
   inkscape:version="0.48.4 r9939"
   sodipodi:docname="layers.svg">
  <defs
     id="defs8613">
    <clipPath
       clipPathUnits="userSpaceOnUse"
       id="clipPath3803">
      <path
         style="fill:#000000;fill-opacity:1;stroke:none"
         d="m -17.996303,734.36228 -3.000804,3 -20.005362,0 -3.000805,3 26.006971,0 z"
         id="path3805"
         inkscape:connector-curvature="0" />
    </clipPath>
    <clipPath
       clipPathUnits="userSpaceOnUse"
       id="clipPath3803-7">
      <path
         style="fill:#000000;fill-opacity:1;stroke:none"
         d="m -17.996303,734.36228 -3.000804,3 -20.005362,0 -3.000805,3 26.006971,0 z"
         id="path3805-4"
         inkscape:connector-curvature="0" />
    </clipPath>
    <clipPath
       clipPathUnits="userSpaceOnUse"
       id="clipPath3803-8">
      <path
         style="fill:#000000;fill-opacity:1;stroke:none"
         d="m -17.996303,734.36228 -3.000804,3 -20.005362,0 -3.000805,3 26.006971,0 z"
         id="path3805-7"
         inkscape:connector-curvature="0" />
    </clipPath>
  </defs>
  <sodipodi:namedview
     id="base"
     pagecolor="#ffffff"
     bordercolor="#666666"
     borderopacity="1.0"
     inkscape:pageopacity="0.0"
     inkscape:pageshadow="2"
     inkscape:zoom="17.718701"
     inkscape:cx="16.000067"
     inkscape:cy="16.000044"
     inkscape:document-units="px"
     inkscape:current-layer="rescan"
     showgrid="true"
     fit-margin-top="0"
     fit-margin-left="0"
     fit-margin-right="0"
     fit-margin-bottom="0"
     inkscape:window-width="1366"
     inkscape:window-height="745"
     inkscape:window-x="0"
     inkscape:window-y="0"
     inkscape:window-maximized="1"
     inkscape:snap-bbox="true">
    <inkscape:grid
       type="xygrid"
       id="grid3013" />
  </sodipodi:namedview>
  <metadata
     id="metadata8616">
    <rdf:RDF>
      <cc:Work
         rdf:about="">
        <dc:format>image/svg+xml</dc:format>
        <dc:type
           rdf:resource="http://purl.org/dc/dcmitype/StillImage" />
        <dc:title></dc:title>
      </cc:Work>
    </rdf:RDF>
  </metadata>
  <g
     inkscape:label="Layer 1"
     inkscape:groupmode="layer"
     id="layer1"
     transform="translate(-501.43926,-555.73716)">
    <g
       id="rescan"
       inkscape:label="#g6397"
       transform="matrix(0.99973199,0,0,1.0000001,548.43074,-175.6251)">
      <g
         id="g3849"
         transform="translate(0,-0.99999756)">
        <path
           sodipodi:nodetypes="cccccccc"
           inkscape:connector-curvature="0"
           id="rect3021-63"
           d="m -32.325316,751.36225 15.329248,-0.99997 3.1e-5,0.99997 c -3.218594,3.7053 -6.963389,6.81943 -10.67767,10.00002 l -8.164791,0 -9.16507,0 3.5e-5,-1.00003 z"
           style="fill:#000000;fill-opacity:1;stroke:none" />
        <path
           sodipodi:nodetypes="ccccc"
           inkscape:connector-curvature="0"
           id="rect3021-6-2"
           d="m -33.325572,750.36222 16.32957,0 -11.002971,10.00002 -17.00456,0 z"
           style="fill:#bebebe;fill-opacity:1;stroke:none" />
      </g>
      <g
         id="g3845">
        <path
           sodipodi:nodetypes="cccccccc"
           inkscape:connector-curvature="0"
           id="rect3021-9"
           d="m -32.325316,742.36227 15.329248,-0.99997 3.1e-5,0.99997 c -3.218594,3.7053 -6.963389,6.81943 -10.67767,10.00002 l -8.164791,0 -9.16507,0 3.5e-5,-1.00003 z"
           style="fill:#000000;fill-opacity:1;stroke:none" />
        <path
           sodipodi:nodetypes="ccccc"
           inkscape:connector-curvature="0"
           id="rect3021-6-4"
           d="m -33.325572,741.36224 16.32957,0 -11.002971,10.00002 -17.00456,0 z"
           style="fill:#bebebe;fill-opacity:1;stroke:none" />
      </g>
      <g
         id="g3841"
         transform="translate(0,0.99997442)">
        <path
           sodipodi:nodetypes="cccccccc"
           inkscape:connector-curvature="0"
           id="rect3021"
           d="m 825.25806,1129.0426 14.16149,-1.5374 1.16779,1.5374 c 1.10843,5.6967 1.00029,10.4845 1.00029,15.3745 l -8.16479,0 -9.16507,0 -1.1678,-1.5375 z"
           style="fill:#000000;fill-opacity:1;stroke:none"
           transform="matrix(1,0,-0.75956689,0.6504292,0,0)" />
        <path
           sodipodi:nodetypes="ccccc"
           inkscape:connector-curvature="0"
           id="rect3021-6"
           d="m 823.08997,1127.5051 16.32957,0 0.67499,15.3745 -17.00456,0 z"
           style="fill:#bebebe;fill-opacity:1;stroke:none"
           transform="matrix(1,0,-0.75956689,0.6504292,0,0)" />
      </g>
    </g>
  </g>
</svg>
