<?xml version="1.0" encoding="UTF-8" standalone="no"?>
<!-- Created with Inkscape (http://www.inkscape.org/) -->

<svg
   xmlns:dc="http://purl.org/dc/elements/1.1/"
   xmlns:cc="http://creativecommons.org/ns#"
   xmlns:rdf="http://www.w3.org/1999/02/22-rdf-syntax-ns#"
   xmlns:svg="http://www.w3.org/2000/svg"
   xmlns="http://www.w3.org/2000/svg"
   xmlns:inkscape="http://www.inkscape.org/namespaces/inkscape"
   version="1.1"
   width="32"
   height="32"
   id="svg2"
   xml:space="preserve"><metadata
     id="metadata8"><rdf:RDF><cc:Work
         rdf:about=""><dc:format>image/svg+xml</dc:format><dc:type
           rdf:resource="http://purl.org/dc/dcmitype/StillImage" /></cc:Work></rdf:RDF></metadata><defs
     id="defs6" /><g
     transform="matrix(1.25,0,0,-1.25,0,32)"
     id="g10"><g
       id="g12"><g
         transform="matrix(1,0,0,-1,0,25.6)"
         id="g14"><path
           d="m 0.398,0.391 24.801,0 0,24.801 -24.801,0 0,-24.801 z"
           inkscape:connector-curvature="0"
           id="path16"
           style="fill:#000000;fill-opacity:1;fill-rule:nonzero;stroke:#ffffff;stroke-width:0.80000001;stroke-linecap:butt;stroke-linejoin:miter;stroke-miterlimit:4;stroke-opacity:1;stroke-dasharray:none" /></g><path
         d="m 1.602,4.811 3.199,0 0,-3.199 -3.199,0 0,3.199 z"
         inkscape:connector-curvature="0"
         id="path18"
         style="fill:#ffffff;fill-opacity:1;fill-rule:nonzero;stroke:none" /><path
         d="m 1.602,9.612 3.199,0 0,-3.203 -3.199,0 0,3.203 z"
         inkscape:connector-curvature="0"
         id="path20"
         style="fill:#ffffff;fill-opacity:1;fill-rule:nonzero;stroke:none" /><path
         d="m 1.602,14.409 3.199,0 0,-3.199 -3.199,0 0,3.199 z"
         inkscape:connector-curvature="0"
         id="path22"
         style="fill:#ffffff;fill-opacity:1;fill-rule:nonzero;stroke:none" /><path
         d="m 1.602,19.209 3.199,0 0,-3.199 -3.199,0 0,3.199 z"
         inkscape:connector-curvature="0"
         id="path24"
         style="fill:#ffffff;fill-opacity:1;fill-rule:nonzero;stroke:none" /><path
         d="m 1.602,24.01 3.199,0 0,-3.199 -3.199,0 0,3.199 z"
         inkscape:connector-curvature="0"
         id="path26"
         style="fill:#ffffff;fill-opacity:1;fill-rule:nonzero;stroke:none" /><path
         d="m 6.398,4.811 3.203,0 0,-3.199 -3.203,0 0,3.199 z"
         inkscape:connector-curvature="0"
         id="path28"
         style="fill:#ffffff;fill-opacity:1;fill-rule:nonzero;stroke:none" /><path
         d="m 6.398,9.612 3.203,0 0,-3.203 -3.203,0 0,3.203 z"
         inkscape:connector-curvature="0"
         id="path30"
         style="fill:#ffffff;fill-opacity:1;fill-rule:nonzero;stroke:none" /><path
         d="m 6.398,14.409 3.203,0 0,-3.199 -3.203,0 0,3.199 z"
         inkscape:connector-curvature="0"
         id="path32"
         style="fill:#ffffff;fill-opacity:1;fill-rule:nonzero;stroke:none" /><path
         d="m 6.398,19.209 3.203,0 0,-3.199 -3.203,0 0,3.199 z"
         inkscape:connector-curvature="0"
         id="path34"
         style="fill:#ffffff;fill-opacity:1;fill-rule:nonzero;stroke:none" /><path
         d="m 6.398,24.01 3.203,0 0,-3.199 -3.203,0 0,3.199 z"
         inkscape:connector-curvature="0"
         id="path36"
         style="fill:#ffffff;fill-opacity:1;fill-rule:nonzero;stroke:none" /><path
         d="m 11.199,4.811 3.199,0 0,-3.199 -3.199,0 0,3.199 z"
         inkscape:connector-curvature="0"
         id="path38"
         style="fill:#ffffff;fill-opacity:1;fill-rule:nonzero;stroke:none" /><path
         d="m 11.199,9.612 3.199,0 0,-3.203 -3.199,0 0,3.203 z"
         inkscape:connector-curvature="0"
         id="path40"
         style="fill:#ffffff;fill-opacity:1;fill-rule:nonzero;stroke:none" /><path
         d="m 11.199,14.409 3.199,0 0,-3.199 -3.199,0 0,3.199 z"
         inkscape:connector-curvature="0"
         id="path42"
         style="fill:#ffffff;fill-opacity:1;fill-rule:nonzero;stroke:none" /><path
         d="m 11.199,19.209 3.199,0 0,-3.199 -3.199,0 0,3.199 z"
         inkscape:connector-curvature="0"
         id="path44"
         style="fill:#ffffff;fill-opacity:1;fill-rule:nonzero;stroke:none" /><path
         d="m 11.199,24.01 3.199,0 0,-3.199 -3.199,0 0,3.199 z"
         inkscape:connector-curvature="0"
         id="path46"
         style="fill:#ffffff;fill-opacity:1;fill-rule:nonzero;stroke:none" /><path
         d="m 16,4.811 3.199,0 0,-3.199 -3.199,0 0,3.199 z"
         inkscape:connector-curvature="0"
         id="path48"
         style="fill:#ffffff;fill-opacity:1;fill-rule:nonzero;stroke:none" /><path
         d="m 16,9.612 3.199,0 0,-3.203 -3.199,0 0,3.203 z"
         inkscape:connector-curvature="0"
         id="path50"
         style="fill:#ffffff;fill-opacity:1;fill-rule:nonzero;stroke:none" /><path
         d="m 16,14.409 3.199,0 0,-3.199 -3.199,0 0,3.199 z"
         inkscape:connector-curvature="0"
         id="path52"
         style="fill:#ffffff;fill-opacity:1;fill-rule:nonzero;stroke:none" /><path
         d="m 16,19.209 3.199,0 0,-3.199 -3.199,0 0,3.199 z"
         inkscape:connector-curvature="0"
         id="path54"
         style="fill:#ffffff;fill-opacity:1;fill-rule:nonzero;stroke:none" /><path
         d="m 16,24.01 3.199,0 0,-3.199 -3.199,0 0,3.199 z"
         inkscape:connector-curvature="0"
         id="path56"
         style="fill:#ffffff;fill-opacity:1;fill-rule:nonzero;stroke:none" /><path
         d="m 20.801,4.811 3.199,0 0,-3.199 -3.199,0 0,3.199 z"
         inkscape:connector-curvature="0"
         id="path58"
         style="fill:#ffffff;fill-opacity:1;fill-rule:nonzero;stroke:none" /><path
         d="m 20.801,9.612 3.199,0 0,-3.203 -3.199,0 0,3.203 z"
         inkscape:connector-curvature="0"
         id="path60"
         style="fill:#ffffff;fill-opacity:1;fill-rule:nonzero;stroke:none" /><path
         d="m 20.801,14.409 3.199,0 0,-3.199 -3.199,0 0,3.199 z"
         inkscape:connector-curvature="0"
         id="path62"
         style="fill:#ffffff;fill-opacity:1;fill-rule:nonzero;stroke:none" /><path
         d="m 20.801,19.209 3.199,0 0,-3.199 -3.199,0 0,3.199 z"
         inkscape:connector-curvature="0"
         id="path64"
         style="fill:#ffffff;fill-opacity:1;fill-rule:nonzero;stroke:none" /><path
         d="m 20.801,24.01 3.199,0 0,-3.199 -3.199,0 0,3.199 z"
         inkscape:connector-curvature="0"
         id="path66"
         style="fill:#ffffff;fill-opacity:1;fill-rule:nonzero;stroke:none" /></g></g></svg>