<?xml version="1.0" encoding="UTF-8" standalone="no"?>
<!-- Created with Inkscape (http://www.inkscape.org/) -->

<svg
   xmlns:dc="http://purl.org/dc/elements/1.1/"
   xmlns:cc="http://creativecommons.org/ns#"
   xmlns:rdf="http://www.w3.org/1999/02/22-rdf-syntax-ns#"
   xmlns:svg="http://www.w3.org/2000/svg"
   xmlns="http://www.w3.org/2000/svg"
   xmlns:inkscape="http://www.inkscape.org/namespaces/inkscape"
   version="1.1"
   width="32"
   height="32"
   id="svg2"
   xml:space="preserve"><metadata
     id="metadata8"><rdf:RDF><cc:Work
         rdf:about=""><dc:format>image/svg+xml</dc:format><dc:type
           rdf:resource="http://purl.org/dc/dcmitype/StillImage" /></cc:Work></rdf:RDF></metadata><defs
     id="defs6" /><g
     transform="matrix(1.25,0,0,-1.25,0,32)"
     id="g10"><g
       id="g12"><g
         transform="matrix(1,0,0,-1,0,25.6)"
         id="g14"><path
           d="m 0.398,0.391 24.801,0 0,24.801 -24.801,0 0,-24.801 z"
           inkscape:connector-curvature="0"
           id="path16"
           style="fill:#000000;fill-opacity:1;fill-rule:nonzero;stroke:#ffffff;stroke-width:0.80000001;stroke-linecap:butt;stroke-linejoin:miter;stroke-miterlimit:4;stroke-opacity:1;stroke-dasharray:none" /></g><path
         d="m 2.398,23.209 1.602,0 0,-1.598 -1.602,0 0,1.598 z"
         inkscape:connector-curvature="0"
         id="path18"
         style="fill:#ffffff;fill-opacity:1;fill-rule:nonzero;stroke:none" /><path
         d="m 5.602,23.209 1.598,0 0,-1.598 -1.598,0 0,1.598 z"
         inkscape:connector-curvature="0"
         id="path20"
         style="fill:#ffffff;fill-opacity:1;fill-rule:nonzero;stroke:none" /><path
         d="m 8.801,23.209 1.598,0 0,-1.598 -1.598,0 0,1.598 z"
         inkscape:connector-curvature="0"
         id="path22"
         style="fill:#ffffff;fill-opacity:1;fill-rule:nonzero;stroke:none" /><path
         d="m 12,23.209 1.602,0 0,-1.598 -1.602,0 0,1.598 z"
         inkscape:connector-curvature="0"
         id="path24"
         style="fill:#ffffff;fill-opacity:1;fill-rule:nonzero;stroke:none" /><path
         d="m 2.398,20.01 1.602,0 0,-1.602 -1.602,0 0,1.602 z"
         inkscape:connector-curvature="0"
         id="path26"
         style="fill:#ffffff;fill-opacity:1;fill-rule:nonzero;stroke:none" /><path
         d="m 5.602,20.01 1.598,0 0,-1.602 -1.598,0 0,1.602 z"
         inkscape:connector-curvature="0"
         id="path28"
         style="fill:#ffffff;fill-opacity:1;fill-rule:nonzero;stroke:none" /><path
         d="m 8.801,20.01 1.598,0 0,-1.602 -1.598,0 0,1.602 z"
         inkscape:connector-curvature="0"
         id="path30"
         style="fill:#ffffff;fill-opacity:1;fill-rule:nonzero;stroke:none" /><path
         d="m 12,20.01 1.602,0 0,-1.602 -1.602,0 0,1.602 z"
         inkscape:connector-curvature="0"
         id="path32"
         style="fill:#ffffff;fill-opacity:1;fill-rule:nonzero;stroke:none" /><path
         d="m 2.398,16.811 1.602,0 0,-1.602 -1.602,0 0,1.602 z"
         inkscape:connector-curvature="0"
         id="path34"
         style="fill:#ffffff;fill-opacity:1;fill-rule:nonzero;stroke:none" /><path
         d="m 5.602,16.811 1.598,0 0,-1.602 -1.598,0 0,1.602 z"
         inkscape:connector-curvature="0"
         id="path36"
         style="fill:#ffffff;fill-opacity:1;fill-rule:nonzero;stroke:none" /><path
         d="m 8.801,16.811 1.598,0 0,-1.602 -1.598,0 0,1.602 z"
         inkscape:connector-curvature="0"
         id="path38"
         style="fill:#ffffff;fill-opacity:1;fill-rule:nonzero;stroke:none" /><path
         d="m 12,16.811 1.602,0 0,-1.602 -1.602,0 0,1.602 z"
         inkscape:connector-curvature="0"
         id="path40"
         style="fill:#ffffff;fill-opacity:1;fill-rule:nonzero;stroke:none" /><path
         d="m 2.398,13.612 1.602,0 0,-1.602 -1.602,0 0,1.602 z"
         inkscape:connector-curvature="0"
         id="path42"
         style="fill:#ffffff;fill-opacity:1;fill-rule:nonzero;stroke:none" /><path
         d="m 5.602,13.612 1.598,0 0,-1.602 -1.598,0 0,1.602 z"
         inkscape:connector-curvature="0"
         id="path44"
         style="fill:#ffffff;fill-opacity:1;fill-rule:nonzero;stroke:none" /><path
         d="m 8.801,13.612 1.598,0 0,-1.602 -1.598,0 0,1.602 z"
         inkscape:connector-curvature="0"
         id="path46"
         style="fill:#ffffff;fill-opacity:1;fill-rule:nonzero;stroke:none" /><path
         d="m 12,13.612 1.602,0 0,-1.602 -1.602,0 0,1.602 z"
         inkscape:connector-curvature="0"
         id="path48"
         style="fill:#ffffff;fill-opacity:1;fill-rule:nonzero;stroke:none" /><path
         d="m 2.398,10.409 1.602,0 0,-1.598 -1.602,0 0,1.598 z"
         inkscape:connector-curvature="0"
         id="path50"
         style="fill:#ffffff;fill-opacity:1;fill-rule:nonzero;stroke:none" /><path
         d="m 5.602,10.409 1.598,0 0,-1.598 -1.598,0 0,1.598 z"
         inkscape:connector-curvature="0"
         id="path52"
         style="fill:#ffffff;fill-opacity:1;fill-rule:nonzero;stroke:none" /><path
         d="m 8.801,10.409 1.598,0 0,-1.598 -1.598,0 0,1.598 z"
         inkscape:connector-curvature="0"
         id="path54"
         style="fill:#ffffff;fill-opacity:1;fill-rule:nonzero;stroke:none" /><path
         d="m 12,10.409 1.602,0 0,-1.598 -1.602,0 0,1.598 z"
         inkscape:connector-curvature="0"
         id="path56"
         style="fill:#ffffff;fill-opacity:1;fill-rule:nonzero;stroke:none" /><path
         d="m 2.398,7.209 1.602,0 0,-1.598 -1.602,0 0,1.598 z"
         inkscape:connector-curvature="0"
         id="path58"
         style="fill:#ffffff;fill-opacity:1;fill-rule:nonzero;stroke:none" /><path
         d="m 5.602,7.209 1.598,0 0,-1.598 -1.598,0 0,1.598 z"
         inkscape:connector-curvature="0"
         id="path60"
         style="fill:#ffffff;fill-opacity:1;fill-rule:nonzero;stroke:none" /><path
         d="m 8.801,7.209 1.598,0 0,-1.598 -1.598,0 0,1.598 z"
         inkscape:connector-curvature="0"
         id="path62"
         style="fill:#ffffff;fill-opacity:1;fill-rule:nonzero;stroke:none" /><path
         d="m 12,7.209 1.602,0 0,-1.598 -1.602,0 0,1.598 z"
         inkscape:connector-curvature="0"
         id="path64"
         style="fill:#ffffff;fill-opacity:1;fill-rule:nonzero;stroke:none" /><path
         d="m 2.398,4.01 1.602,0 0,-1.602 -1.602,0 0,1.602 z"
         inkscape:connector-curvature="0"
         id="path66"
         style="fill:#ffffff;fill-opacity:1;fill-rule:nonzero;stroke:none" /><path
         d="m 5.602,4.01 1.598,0 0,-1.602 -1.598,0 0,1.602 z"
         inkscape:connector-curvature="0"
         id="path68"
         style="fill:#ffffff;fill-opacity:1;fill-rule:nonzero;stroke:none" /><path
         d="m 8.801,4.01 1.598,0 0,-1.602 -1.598,0 0,1.602 z"
         inkscape:connector-curvature="0"
         id="path70"
         style="fill:#ffffff;fill-opacity:1;fill-rule:nonzero;stroke:none" /><path
         d="m 12,4.01 1.602,0 0,-1.602 -1.602,0 0,1.602 z"
         inkscape:connector-curvature="0"
         id="path72"
         style="fill:#ffffff;fill-opacity:1;fill-rule:nonzero;stroke:none" /><path
         d="m 15.199,23.209 1.602,0 0,-1.598 -1.602,0 0,1.598 z"
         inkscape:connector-curvature="0"
         id="path74"
         style="fill:#ffffff;fill-opacity:1;fill-rule:nonzero;stroke:none" /><path
         d="m 18.398,23.209 1.602,0 0,-1.598 -1.602,0 0,1.598 z"
         inkscape:connector-curvature="0"
         id="path76"
         style="fill:#ffffff;fill-opacity:1;fill-rule:nonzero;stroke:none" /><path
         d="m 21.602,23.209 1.598,0 0,-1.598 -1.598,0 0,1.598 z"
         inkscape:connector-curvature="0"
         id="path78"
         style="fill:#ffffff;fill-opacity:1;fill-rule:nonzero;stroke:none" /><path
         d="m 15.199,20.01 1.602,0 0,-1.602 -1.602,0 0,1.602 z"
         inkscape:connector-curvature="0"
         id="path80"
         style="fill:#ffffff;fill-opacity:1;fill-rule:nonzero;stroke:none" /><path
         d="m 18.398,20.01 1.602,0 0,-1.602 -1.602,0 0,1.602 z"
         inkscape:connector-curvature="0"
         id="path82"
         style="fill:#ffffff;fill-opacity:1;fill-rule:nonzero;stroke:none" /><path
         d="m 21.602,20.01 1.598,0 0,-1.602 -1.598,0 0,1.602 z"
         inkscape:connector-curvature="0"
         id="path84"
         style="fill:#ffffff;fill-opacity:1;fill-rule:nonzero;stroke:none" /><path
         d="m 15.199,16.811 1.602,0 0,-1.602 -1.602,0 0,1.602 z"
         inkscape:connector-curvature="0"
         id="path86"
         style="fill:#ffffff;fill-opacity:1;fill-rule:nonzero;stroke:none" /><path
         d="m 18.398,16.811 1.602,0 0,-1.602 -1.602,0 0,1.602 z"
         inkscape:connector-curvature="0"
         id="path88"
         style="fill:#ffffff;fill-opacity:1;fill-rule:nonzero;stroke:none" /><path
         d="m 21.602,16.811 1.598,0 0,-1.602 -1.598,0 0,1.602 z"
         inkscape:connector-curvature="0"
         id="path90"
         style="fill:#ffffff;fill-opacity:1;fill-rule:nonzero;stroke:none" /><path
         d="m 15.199,13.612 1.602,0 0,-1.602 -1.602,0 0,1.602 z"
         inkscape:connector-curvature="0"
         id="path92"
         style="fill:#ffffff;fill-opacity:1;fill-rule:nonzero;stroke:none" /><path
         d="m 18.398,13.612 1.602,0 0,-1.602 -1.602,0 0,1.602 z"
         inkscape:connector-curvature="0"
         id="path94"
         style="fill:#ffffff;fill-opacity:1;fill-rule:nonzero;stroke:none" /><path
         d="m 21.602,13.612 1.598,0 0,-1.602 -1.598,0 0,1.602 z"
         inkscape:connector-curvature="0"
         id="path96"
         style="fill:#ffffff;fill-opacity:1;fill-rule:nonzero;stroke:none" /><path
         d="m 15.199,10.409 1.602,0 0,-1.598 -1.602,0 0,1.598 z"
         inkscape:connector-curvature="0"
         id="path98"
         style="fill:#ffffff;fill-opacity:1;fill-rule:nonzero;stroke:none" /><path
         d="m 18.398,10.409 1.602,0 0,-1.598 -1.602,0 0,1.598 z"
         inkscape:connector-curvature="0"
         id="path100"
         style="fill:#ffffff;fill-opacity:1;fill-rule:nonzero;stroke:none" /><path
         d="m 21.602,10.409 1.598,0 0,-1.598 -1.598,0 0,1.598 z"
         inkscape:connector-curvature="0"
         id="path102"
         style="fill:#ffffff;fill-opacity:1;fill-rule:nonzero;stroke:none" /><path
         d="m 15.199,7.209 1.602,0 0,-1.598 -1.602,0 0,1.598 z"
         inkscape:connector-curvature="0"
         id="path104"
         style="fill:#ffffff;fill-opacity:1;fill-rule:nonzero;stroke:none" /><path
         d="m 18.398,7.209 1.602,0 0,-1.598 -1.602,0 0,1.598 z"
         inkscape:connector-curvature="0"
         id="path106"
         style="fill:#ffffff;fill-opacity:1;fill-rule:nonzero;stroke:none" /><path
         d="m 21.602,7.209 1.598,0 0,-1.598 -1.598,0 0,1.598 z"
         inkscape:connector-curvature="0"
         id="path108"
         style="fill:#ffffff;fill-opacity:1;fill-rule:nonzero;stroke:none" /><path
         d="m 15.199,4.01 1.602,0 0,-1.602 -1.602,0 0,1.602 z"
         inkscape:connector-curvature="0"
         id="path110"
         style="fill:#ffffff;fill-opacity:1;fill-rule:nonzero;stroke:none" /><path
         d="m 18.398,4.01 1.602,0 0,-1.602 -1.602,0 0,1.602 z"
         inkscape:connector-curvature="0"
         id="path112"
         style="fill:#ffffff;fill-opacity:1;fill-rule:nonzero;stroke:none" /><path
         d="m 21.602,4.01 1.598,0 0,-1.602 -1.598,0 0,1.602 z"
         inkscape:connector-curvature="0"
         id="path114"
         style="fill:#ffffff;fill-opacity:1;fill-rule:nonzero;stroke:none" /></g></g></svg>