<?xml version="1.0" encoding="UTF-8" standalone="no"?>
<!-- Created with Inkscape (http://www.inkscape.org/) -->

<svg
   xmlns:dc="http://purl.org/dc/elements/1.1/"
   xmlns:cc="http://creativecommons.org/ns#"
   xmlns:rdf="http://www.w3.org/1999/02/22-rdf-syntax-ns#"
   xmlns:svg="http://www.w3.org/2000/svg"
   xmlns="http://www.w3.org/2000/svg"
   xmlns:inkscape="http://www.inkscape.org/namespaces/inkscape"
   version="1.1"
   width="32"
   height="32.302124"
   id="svg2"
   xml:space="preserve"><metadata
     id="metadata8"><rdf:RDF><cc:Work
         rdf:about=""><dc:format>image/svg+xml</dc:format><dc:type
           rdf:resource="http://purl.org/dc/dcmitype/StillImage" /></cc:Work></rdf:RDF></metadata><defs
     id="defs6"><clipPath
       id="clipPath30"><path
         d="m 7,-0.158302 17,0 0,22 -17,0 0,-22 z"
         inkscape:connector-curvature="0"
         id="path32" /></clipPath><mask
       id="mask34"><g
         id="g36"><g
           clip-path="url(#clipPath30)"
           id="g38"><path
             d="m 7,-0.158302 17,0 0,22 -17,0 0,-22 z"
             inkscape:connector-curvature="0"
             id="path40"
             style="fill:#000000;fill-opacity:0.47907003;fill-rule:nonzero;stroke:none" /></g></g></mask><clipPath
       id="clipPath46"><path
         d="m 7,-0.158302 17,0 0,22 -17,0 0,-22 z"
         inkscape:connector-curvature="0"
         id="path48" /></clipPath><clipPath
       id="clipPath50"><path
         d="M 7,0 24,0 24,22 7,22 7,0 z"
         inkscape:connector-curvature="0"
         id="path52" /></clipPath></defs><g
     transform="matrix(1.25,0,0,-1.25,0,32.302123)"
     id="g10"><g
       id="g12"><g
         transform="matrix(1,0,0,-1,0,25.841698)"
         id="g14"><path
           d="m 0.984,9.281 23.633,0"
           inkscape:connector-curvature="0"
           id="path16"
           style="fill:none;stroke:#000000;stroke-width:1.60000002;stroke-linecap:butt;stroke-linejoin:miter;stroke-miterlimit:4;stroke-opacity:1;stroke-dasharray:none" /></g><g
         transform="matrix(1,0,0,-1,0,25.841698)"
         id="g18"><path
           d="m 0.984,14.082 23.633,0"
           inkscape:connector-curvature="0"
           id="path20"
           style="fill:none;stroke:#000000;stroke-width:1.60000002;stroke-linecap:butt;stroke-linejoin:miter;stroke-miterlimit:4;stroke-opacity:1;stroke-dasharray:none" /></g><g
         transform="matrix(1,0,0,-1,0,25.841698)"
         id="g22"><path
           d="m 0.984,4.48 23.633,0"
           inkscape:connector-curvature="0"
           id="path24"
           style="fill:none;stroke:#000000;stroke-width:1.60000002;stroke-linecap:butt;stroke-linejoin:miter;stroke-miterlimit:4;stroke-opacity:1;stroke-dasharray:none" /></g><g
         id="g26"><g
           id="g28" /><g
           mask="url(#mask34)"
           id="g42"><g
             id="g44" /><g
             id="g54"><g
               clip-path="url(#clipPath46)"
               id="g56"><g
                 transform="translate(0,-0.158302)"
                 id="g58"><g
                   id="g60"><g
                     clip-path="url(#clipPath50)"
                     id="g62"><g
                       id="g64"><g
                         transform="matrix(1,0,0,-1,0,26)"
                         id="g66"><path
                           d="m 17.824,17.227 4.442,7.878 M 20.902,12.242 c 0,3.535 -2.558,6.094 -6.093,6.094 -3.536,0 -6.09,-2.559 -6.09,-6.094 0,-3.535 2.863,-6.094 6.398,-6.094 3.535,0 5.785,2.559 5.785,6.094 z"
                           inkscape:connector-curvature="0"
                           id="path68"
                           style="fill:none;stroke:#ffffff;stroke-width:2.95384598;stroke-linecap:butt;stroke-linejoin:miter;stroke-miterlimit:4;stroke-opacity:1;stroke-dasharray:none" /></g></g></g></g></g></g></g></g></g><g
         transform="matrix(1,0,0,-1,0,25.841698)"
         id="g70"><path
           d="m 17.703,17.164 4.192,7.324"
           inkscape:connector-curvature="0"
           id="path72"
           style="fill:none;stroke:#000000;stroke-width:0.98461503;stroke-linecap:butt;stroke-linejoin:miter;stroke-miterlimit:4;stroke-opacity:1;stroke-dasharray:none" /></g><path
         d="m 20.719,13.6 c 0,-3.262 -2.649,-5.907 -5.91,-5.907 -3.262,0 -5.907,2.645 -5.907,5.907 0,3.261 2.645,5.906 5.907,5.906 3.261,0 5.91,-2.645 5.91,-5.906 z"
         inkscape:connector-curvature="0"
         id="path74"
         style="fill:#cacaca;fill-opacity:0.484375;fill-rule:nonzero;stroke:none" /><g
         transform="matrix(1,0,0,-1,0,25.841698)"
         id="g76"><path
           d="m 20.719,12.242 c 0,3.262 -2.649,5.906 -5.91,5.906 -3.262,0 -5.907,-2.644 -5.907,-5.906 0,-3.262 2.645,-5.906 5.907,-5.906 3.261,0 5.91,2.644 5.91,5.906 z"
           inkscape:connector-curvature="0"
           id="path78"
           style="fill:none;stroke:#000000;stroke-width:0.98461503;stroke-linecap:butt;stroke-linejoin:miter;stroke-miterlimit:8;stroke-opacity:1;stroke-dasharray:none" /></g></g></g></svg>