<?xml version="1.0" encoding="UTF-8" standalone="no"?>
<!-- Created with Inkscape (http://www.inkscape.org/) -->

<svg
   xmlns:dc="http://purl.org/dc/elements/1.1/"
   xmlns:cc="http://creativecommons.org/ns#"
   xmlns:rdf="http://www.w3.org/1999/02/22-rdf-syntax-ns#"
   xmlns:svg="http://www.w3.org/2000/svg"
   xmlns="http://www.w3.org/2000/svg"
   xmlns:inkscape="http://www.inkscape.org/namespaces/inkscape"
   version="1.1"
   width="32"
   height="32"
   id="svg2"
   xml:space="preserve"><metadata
     id="metadata8"><rdf:RDF><cc:Work
         rdf:about=""><dc:format>image/svg+xml</dc:format><dc:type
           rdf:resource="http://purl.org/dc/dcmitype/StillImage" /></cc:Work></rdf:RDF></metadata><defs
     id="defs6" /><g
     transform="matrix(1.25,0,0,-1.25,0,32)"
     id="g10"><g
       id="g12"><g
         transform="matrix(1,0,0,-1,0,25.6)"
         id="g14"><path
           d="m 0.387,0.398 24.801,0 0,24.797 -24.801,0 0,-24.797 z"
           inkscape:connector-curvature="0"
           id="path16"
           style="fill:#000000;fill-opacity:1;fill-rule:nonzero;stroke:#ffffff;stroke-width:0.80000001;stroke-linecap:butt;stroke-linejoin:miter;stroke-miterlimit:4;stroke-opacity:1;stroke-dasharray:none" /></g><g
         transform="matrix(1,0,0,-1,0,25.6)"
         id="g18"><path
           d="m 3.188,9.496 19.199,0"
           inkscape:connector-curvature="0"
           id="path20"
           style="fill:none;stroke:#ffffff;stroke-width:0.80000001;stroke-linecap:butt;stroke-linejoin:miter;stroke-miterlimit:4;stroke-opacity:1;stroke-dasharray:none" /></g><g
         transform="matrix(1,0,0,-1,0,25.6)"
         id="g22"><path
           d="m 3.188,12.699 19.199,0"
           inkscape:connector-curvature="0"
           id="path24"
           style="fill:none;stroke:#ffffff;stroke-width:0.80000001;stroke-linecap:butt;stroke-linejoin:miter;stroke-miterlimit:4;stroke-opacity:1;stroke-dasharray:none" /></g><g
         transform="matrix(1,0,0,-1,0,25.6)"
         id="g26"><path
           d="m 3.188,6.297 19.199,0"
           inkscape:connector-curvature="0"
           id="path28"
           style="fill:none;stroke:#ffffff;stroke-width:0.80000001;stroke-linecap:butt;stroke-linejoin:miter;stroke-miterlimit:4;stroke-opacity:1;stroke-dasharray:none" /></g><path
         d="m 20.422,12.756 c 0,-3.316 -2.688,-6 -6,-6 -3.317,0 -6,2.684 -6,6 0,3.313 2.683,6 6,6 3.312,0 6,-2.687 6,-6 z"
         inkscape:connector-curvature="0"
         id="path30"
         style="fill:#000000;fill-opacity:1;fill-rule:nonzero;stroke:none" /><g
         transform="matrix(1,0,0,-1,0,25.6)"
         id="g32"><path
           d="m 14.422,12.844 5.758,9.953"
           inkscape:connector-curvature="0"
           id="path34"
           style="fill:none;stroke:#000000;stroke-width:2.4000001;stroke-linecap:butt;stroke-linejoin:miter;stroke-miterlimit:4;stroke-opacity:1;stroke-dasharray:none" /></g><g
         transform="matrix(1,0,0,-1,0,25.6)"
         id="g36"><path
           d="m 14.422,12.844 5.758,9.953"
           inkscape:connector-curvature="0"
           id="path38"
           style="fill:none;stroke:#ffffff;stroke-width:0.80000001;stroke-linecap:butt;stroke-linejoin:miter;stroke-miterlimit:4;stroke-opacity:1;stroke-dasharray:none" /></g><g
         transform="matrix(1,0,0,-1,0,25.6)"
         id="g40"><path
           d="m 19.223,12.844 c 0,2.652 -2.153,4.801 -4.801,4.801 -2.652,0 -4.801,-2.149 -4.801,-4.801 0,-2.649 2.149,-4.797 4.801,-4.797 2.648,0 4.801,2.148 4.801,4.797 z"
           inkscape:connector-curvature="0"
           id="path42"
           style="fill:#000000;fill-opacity:1;fill-rule:nonzero;stroke:#ffffff;stroke-width:0.80000001;stroke-linecap:butt;stroke-linejoin:miter;stroke-miterlimit:8;stroke-opacity:1;stroke-dasharray:none" /></g></g></g></svg>