<?xml version="1.0" encoding="UTF-8" standalone="no"?>
<!-- Created with Inkscape (http://www.inkscape.org/) -->

<svg
   xmlns:dc="http://purl.org/dc/elements/1.1/"
   xmlns:cc="http://creativecommons.org/ns#"
   xmlns:rdf="http://www.w3.org/1999/02/22-rdf-syntax-ns#"
   xmlns:svg="http://www.w3.org/2000/svg"
   xmlns="http://www.w3.org/2000/svg"
   xmlns:inkscape="http://www.inkscape.org/namespaces/inkscape"
   version="1.1"
   width="32"
   height="32.560532"
   id="svg2"
   xml:space="preserve"><metadata
     id="metadata8"><rdf:RDF><cc:Work
         rdf:about=""><dc:format>image/svg+xml</dc:format><dc:type
           rdf:resource="http://purl.org/dc/dcmitype/StillImage" /></cc:Work></rdf:RDF></metadata><defs
     id="defs6" /><g
     transform="matrix(1.25,0,0,-1.25,0,32.56053)"
     id="g10"><g
       id="g12"><path
         d="m 0,26.048 25.602,0 0,-25.602 -25.602,0 0,25.602 z"
         inkscape:connector-curvature="0"
         id="path14"
         style="fill:#000000;fill-opacity:1;fill-rule:nonzero;stroke:none" /><path
         d="m 0.801,21.873 4.801,0 0,-4.801 -4.801,0 0,4.801 z"
         inkscape:connector-curvature="0"
         id="path16"
         style="fill:#ffffff;fill-opacity:1;fill-rule:nonzero;stroke:none" /><path
         d="m 7.199,21.873 4.801,0 0,-4.801 -4.801,0 0,4.801 z"
         inkscape:connector-curvature="0"
         id="path18"
         style="fill:#ffffff;fill-opacity:1;fill-rule:nonzero;stroke:none" /><path
         d="m 13.602,21.873 4.797,0 0,-4.801 -4.797,0 0,4.801 z"
         inkscape:connector-curvature="0"
         id="path20"
         style="fill:#ffffff;fill-opacity:1;fill-rule:nonzero;stroke:none" /><path
         d="m 20,21.873 4.801,0 0,-4.801 -4.801,0 0,4.801 z"
         inkscape:connector-curvature="0"
         id="path22"
         style="fill:#ffffff;fill-opacity:1;fill-rule:nonzero;stroke:none" /><path
         d="m 0.801,15.47 4.801,0 0,-4.801 -4.801,0 0,4.801 z"
         inkscape:connector-curvature="0"
         id="path24"
         style="fill:#ffffff;fill-opacity:1;fill-rule:nonzero;stroke:none" /><path
         d="m 7.199,15.47 4.801,0 0,-4.801 -4.801,0 0,4.801 z"
         inkscape:connector-curvature="0"
         id="path26"
         style="fill:#ffffff;fill-opacity:1;fill-rule:nonzero;stroke:none" /><path
         d="m 13.289,15.548 c 1.832,0.2 3.531,1.207 5.406,0.274 0.278,-1.824 0.336,-3.602 0.27,-5.481 -1.887,-0.179 -4.11,-0.211 -5.906,0.012 -0.497,1.836 0.046,3.766 0.23,5.195 z"
         inkscape:connector-curvature="0"
         id="path28"
         style="fill:#ffffff;fill-opacity:1;fill-rule:nonzero;stroke:none" /><path
         d="m 19.82,15.65 1.2,-0.18 3.781,0 0,-4.8 -2.403,0 c -0.796,-0.063 -0.839,-0.118 -2.261,-0.243 0.078,2.149 -0.09,3.91 -0.317,5.223 z"
         inkscape:connector-curvature="0"
         id="path30"
         style="fill:#ffffff;fill-opacity:1;fill-rule:nonzero;stroke:none" /><path
         d="m 0.801,9.072 4.801,0 0,-4.801 -4.801,0 0,4.801 z"
         inkscape:connector-curvature="0"
         id="path32"
         style="fill:#ffffff;fill-opacity:1;fill-rule:nonzero;stroke:none" /><path
         d="m 7.199,9.072 4.801,0 0,-4.801 -4.801,0 0,4.801 z"
         inkscape:connector-curvature="0"
         id="path34"
         style="fill:#ffffff;fill-opacity:1;fill-rule:nonzero;stroke:none" /><path
         d="M 13.285,8.935 C 15.02,8.615 17.043,8.646 18.93,8.892 18.957,7.259 18.547,6.888 18.398,7.076 l 0,-2.805 -4.796,0 0,3.754 c 0,0.348 -0.317,0.562 -0.317,0.91 z"
         inkscape:connector-curvature="0"
         id="path36"
         style="fill:#ffffff;fill-opacity:1;fill-rule:nonzero;stroke:none" /><path
         d="m 20.18,8.935 1.226,0.137 3.395,0 0,-4.801 -4.801,0 0,3.258 0.18,1.406 z"
         inkscape:connector-curvature="0"
         id="path38"
         style="fill:#ffffff;fill-opacity:1;fill-rule:nonzero;stroke:none" /><g
         transform="matrix(1,0,0,-1,0,26.048424)"
         id="g40"><path
           d="m 22.375,14.449 c 0,2.981 -2.418,5.399 -5.402,5.399 -2.981,0 -5.399,-2.418 -5.399,-5.399 0,-2.984 2.418,-5.402 5.399,-5.402 2.984,0 5.402,2.418 5.402,5.402 z"
           inkscape:connector-curvature="0"
           id="path42"
           style="fill:none;stroke:#000000;stroke-width:1.20000005;stroke-linecap:butt;stroke-linejoin:miter;stroke-miterlimit:6;stroke-opacity:1;stroke-dasharray:none" /></g><g
         transform="matrix(1,0,0,-1,0,26.048424)"
         id="g44"><path
           d="m 19.773,19.289 2.957,5.109"
           inkscape:connector-curvature="0"
           id="path46"
           style="fill:none;stroke:#000000;stroke-width:2.4000001;stroke-linecap:square;stroke-linejoin:miter;stroke-miterlimit:6;stroke-opacity:1;stroke-dasharray:none" /></g><path
         d="m 21.773,11.599 c 0,-2.648 -2.148,-4.801 -4.8,-4.801 -2.649,0 -4.797,2.153 -4.797,4.801 0,2.653 2.148,4.801 4.797,4.801 2.652,0 4.8,-2.148 4.8,-4.801 z"
         inkscape:connector-curvature="0"
         id="path48"
         style="fill:#000000;fill-opacity:0.40886703;fill-rule:nonzero;stroke:none" /><g
         transform="matrix(1,0,0,-1,0,26.048424)"
         id="g50"><path
           d="m 21.773,14.449 c 0,2.649 -2.148,4.801 -4.8,4.801 -2.649,0 -4.797,-2.152 -4.797,-4.801 0,-2.652 2.148,-4.801 4.797,-4.801 2.652,0 4.8,2.149 4.8,4.801 z"
           inkscape:connector-curvature="0"
           id="path52"
           style="fill:none;stroke:#ffffff;stroke-width:0.80000001;stroke-linecap:butt;stroke-linejoin:miter;stroke-miterlimit:8;stroke-opacity:1;stroke-dasharray:none" /></g><g
         transform="matrix(1,0,0,-1,0,26.048424)"
         id="g54"><path
           d="m 19.379,18.605 3.351,5.793"
           inkscape:connector-curvature="0"
           id="path56"
           style="fill:none;stroke:#ffffff;stroke-width:0.80000001;stroke-linecap:square;stroke-linejoin:miter;stroke-miterlimit:4;stroke-opacity:1;stroke-dasharray:none" /></g></g></g></svg>