<?xml version="1.0" encoding="UTF-8" standalone="no"?>
<!-- Created with Inkscape (http://www.inkscape.org/) -->

<svg
   xmlns:dc="http://purl.org/dc/elements/1.1/"
   xmlns:cc="http://creativecommons.org/ns#"
   xmlns:rdf="http://www.w3.org/1999/02/22-rdf-syntax-ns#"
   xmlns:svg="http://www.w3.org/2000/svg"
   xmlns="http://www.w3.org/2000/svg"
   xmlns:inkscape="http://www.inkscape.org/namespaces/inkscape"
   version="1.1"
   width="32"
   height="32"
   id="svg2"
   xml:space="preserve"><metadata
     id="metadata8"><rdf:RDF><cc:Work
         rdf:about=""><dc:format>image/svg+xml</dc:format><dc:type
           rdf:resource="http://purl.org/dc/dcmitype/StillImage" /></cc:Work></rdf:RDF></metadata><defs
     id="defs6" /><g
     transform="matrix(1.25,0,0,-1.25,0,32)"
     id="g10"><g
       id="g12"><g
         transform="matrix(1,0,0,-1,0,25.6)"
         id="g14"><path
           d="m 0.395,0.406 24.801,0 0,24.801 -24.801,0 0,-24.801 z"
           inkscape:connector-curvature="0"
           id="path16"
           style="fill:#000000;fill-opacity:1;fill-rule:nonzero;stroke:#ffffff;stroke-width:0.80000001;stroke-linecap:butt;stroke-linejoin:miter;stroke-miterlimit:4;stroke-opacity:1;stroke-dasharray:none" /></g><path
         d="m 1.594,22.034 4.801,0 0,-4.801 -4.801,0 0,4.801 z"
         inkscape:connector-curvature="0"
         id="path18"
         style="fill:#ffffff;fill-opacity:1;fill-rule:nonzero;stroke:none" /><path
         d="m 1.594,15.631 4.801,0 0,-4.797 -4.801,0 0,4.797 z"
         inkscape:connector-curvature="0"
         id="path20"
         style="fill:#ffffff;fill-opacity:1;fill-rule:nonzero;stroke:none" /><path
         d="m 1.594,9.233 4.801,0 0,-4.801 -4.801,0 0,4.801 z"
         inkscape:connector-curvature="0"
         id="path22"
         style="fill:#ffffff;fill-opacity:1;fill-rule:nonzero;stroke:none" /><path
         d="m 7.391,22.034 4.801,0 0,-4.801 -4.801,0 0,4.801 z"
         inkscape:connector-curvature="0"
         id="path24"
         style="fill:#ffffff;fill-opacity:1;fill-rule:nonzero;stroke:none" /><path
         d="m 7.391,15.631 4.801,0 0,-4.797 -4.801,0 0,4.797 z"
         inkscape:connector-curvature="0"
         id="path26"
         style="fill:#ffffff;fill-opacity:1;fill-rule:nonzero;stroke:none" /><path
         d="m 7.391,9.233 4.801,0 0,-4.801 -4.801,0 0,4.801 z"
         inkscape:connector-curvature="0"
         id="path28"
         style="fill:#ffffff;fill-opacity:1;fill-rule:nonzero;stroke:none" /><path
         d="m 13.266,22.034 4.797,0 0,-4.801 -4.797,0 0,4.801 z"
         inkscape:connector-curvature="0"
         id="path30"
         style="fill:#ffffff;fill-opacity:1;fill-rule:nonzero;stroke:none" /><path
         d="m 12.953,15.709 c 1.832,0.2 3.531,1.207 5.406,0.274 0.278,-1.824 0.336,-3.602 0.27,-5.481 -1.883,-0.179 -4.109,-0.211 -5.906,0.016 -0.496,1.836 0.047,3.762 0.23,5.191 z"
         inkscape:connector-curvature="0"
         id="path32"
         style="fill:#ffffff;fill-opacity:1;fill-rule:nonzero;stroke:none" /><path
         d="M 12.949,9.096 C 14.684,8.776 16.707,8.811 18.594,9.053 18.621,7.424 18.211,7.049 18.062,7.241 l 0,-2.809 -4.796,0 0,3.754 c 0,0.348 -0.317,0.562 -0.317,0.91 z"
         inkscape:connector-curvature="0"
         id="path34"
         style="fill:#ffffff;fill-opacity:1;fill-rule:nonzero;stroke:none" /><path
         d="m 19.074,22.034 4.801,0 0,-4.801 -4.801,0 0,4.801 z"
         inkscape:connector-curvature="0"
         id="path36"
         style="fill:#ffffff;fill-opacity:1;fill-rule:nonzero;stroke:none" /><path
         d="m 18.891,15.815 1.203,-0.184 3.781,0 0,-4.797 -2.402,0 c -0.801,-0.066 -0.84,-0.117 -2.266,-0.246 0.078,2.153 -0.09,3.91 -0.316,5.227 z"
         inkscape:connector-curvature="0"
         id="path38"
         style="fill:#ffffff;fill-opacity:1;fill-rule:nonzero;stroke:none" /><path
         d="m 19.254,9.096 1.226,0.137 3.395,0 0,-4.801 -4.801,0 0,3.258 0.18,1.406 z"
         inkscape:connector-curvature="0"
         id="path40"
         style="fill:#ffffff;fill-opacity:1;fill-rule:nonzero;stroke:none" /><g
         transform="matrix(1,0,0,-1,0,25.6)"
         id="g42"><path
           d="m 22.371,13.555 c 0,2.98 -2.418,5.398 -5.402,5.398 -2.981,0 -5.399,-2.418 -5.399,-5.398 0,-2.985 2.418,-5.399 5.399,-5.399 2.984,0 5.402,2.414 5.402,5.399 z"
           inkscape:connector-curvature="0"
           id="path44"
           style="fill:none;stroke:#000000;stroke-width:1.20000005;stroke-linecap:butt;stroke-linejoin:miter;stroke-miterlimit:6;stroke-opacity:1;stroke-dasharray:none" /></g><g
         transform="matrix(1,0,0,-1,0,25.6)"
         id="g46"><path
           d="m 19.77,18.395 2.957,5.113"
           inkscape:connector-curvature="0"
           id="path48"
           style="fill:none;stroke:#000000;stroke-width:2.4000001;stroke-linecap:square;stroke-linejoin:miter;stroke-miterlimit:6;stroke-opacity:1;stroke-dasharray:none" /></g><path
         d="m 21.77,12.045 c 0,-2.652 -2.149,-4.8 -4.801,-4.8 -2.649,0 -4.801,2.148 -4.801,4.8 0,2.653 2.152,4.801 4.801,4.801 2.652,0 4.801,-2.148 4.801,-4.801 z"
         inkscape:connector-curvature="0"
         id="path50"
         style="fill:#000000;fill-opacity:0.40886703;fill-rule:nonzero;stroke:none" /><g
         transform="matrix(1,0,0,-1,0,25.6)"
         id="g52"><path
           d="m 21.77,13.555 c 0,2.652 -2.149,4.8 -4.801,4.8 -2.649,0 -4.801,-2.148 -4.801,-4.8 0,-2.653 2.152,-4.801 4.801,-4.801 2.652,0 4.801,2.148 4.801,4.801 z"
           inkscape:connector-curvature="0"
           id="path54"
           style="fill:none;stroke:#ffffff;stroke-width:0.80000001;stroke-linecap:butt;stroke-linejoin:miter;stroke-miterlimit:8;stroke-opacity:1;stroke-dasharray:none" /></g><g
         transform="matrix(1,0,0,-1,0,25.6)"
         id="g56"><path
           d="m 19.375,17.711 3.352,5.797"
           inkscape:connector-curvature="0"
           id="path58"
           style="fill:none;stroke:#ffffff;stroke-width:0.80000001;stroke-linecap:square;stroke-linejoin:miter;stroke-miterlimit:4;stroke-opacity:1;stroke-dasharray:none" /></g></g></g></svg>