<?xml version="1.0" encoding="UTF-8" standalone="no"?>
<!-- Created with Inkscape (http://www.inkscape.org/) -->

<svg
   xmlns:dc="http://purl.org/dc/elements/1.1/"
   xmlns:cc="http://creativecommons.org/ns#"
   xmlns:rdf="http://www.w3.org/1999/02/22-rdf-syntax-ns#"
   xmlns:svg="http://www.w3.org/2000/svg"
   xmlns="http://www.w3.org/2000/svg"
   xmlns:sodipodi="http://sodipodi.sourceforge.net/DTD/sodipodi-0.dtd"
   xmlns:inkscape="http://www.inkscape.org/namespaces/inkscape"
   width="9.0311489mm"
   height="9.0311356mm"
   viewBox="0 0 32.000135 32.000088"
   id="svg8611"
   version="1.1"
   inkscape:version="0.48.4 r9939"
   sodipodi:docname="sliders.svg">
  <defs
     id="defs8613">
    <clipPath
       clipPathUnits="userSpaceOnUse"
       id="clipPath3803">
      <path
         style="fill:#000000;fill-opacity:1;stroke:none"
         d="m -17.996303,734.36228 -3.000804,3 -20.005362,0 -3.000805,3 26.006971,0 z"
         id="path3805"
         inkscape:connector-curvature="0" />
    </clipPath>
    <clipPath
       clipPathUnits="userSpaceOnUse"
       id="clipPath3803-7">
      <path
         style="fill:#000000;fill-opacity:1;stroke:none"
         d="m -17.996303,734.36228 -3.000804,3 -20.005362,0 -3.000805,3 26.006971,0 z"
         id="path3805-4"
         inkscape:connector-curvature="0" />
    </clipPath>
    <clipPath
       clipPathUnits="userSpaceOnUse"
       id="clipPath3803-8">
      <path
         style="fill:#000000;fill-opacity:1;stroke:none"
         d="m -17.996303,734.36228 -3.000804,3 -20.005362,0 -3.000805,3 26.006971,0 z"
         id="path3805-7"
         inkscape:connector-curvature="0" />
    </clipPath>
  </defs>
  <sodipodi:namedview
     id="base"
     pagecolor="#ffffff"
     bordercolor="#666666"
     borderopacity="1.0"
     inkscape:pageopacity="0.0"
     inkscape:pageshadow="2"
     inkscape:zoom="17.718701"
     inkscape:cx="16.000067"
     inkscape:cy="16.000044"
     inkscape:document-units="px"
     inkscape:current-layer="rescan"
     showgrid="true"
     fit-margin-top="0"
     fit-margin-left="0"
     fit-margin-right="0"
     fit-margin-bottom="0"
     inkscape:window-width="1366"
     inkscape:window-height="745"
     inkscape:window-x="0"
     inkscape:window-y="0"
     inkscape:window-maximized="1"
     inkscape:snap-bbox="true">
    <inkscape:grid
       type="xygrid"
       id="grid3013" />
  </sodipodi:namedview>
  <metadata
     id="metadata8616">
    <rdf:RDF>
      <cc:Work
         rdf:about="">
        <dc:format>image/svg+xml</dc:format>
        <dc:type
           rdf:resource="http://purl.org/dc/dcmitype/StillImage" />
        <dc:title />
      </cc:Work>
    </rdf:RDF>
  </metadata>
  <g
     inkscape:label="Layer 1"
     inkscape:groupmode="layer"
     id="layer1"
     transform="translate(-501.43926,-555.73716)">
    <g
       id="rescan"
       inkscape:label="#g6397"
       transform="matrix(0.99973199,0,0,1.0000001,548.43074,-175.6251)">
      <g
         id="g4535"
         transform="translate(0,0.99999617)">
        <rect
           rx="2.3145597"
           ry="2.000015"
           y="735.36224"
           x="-43.003006"
           height="4.00003"
           width="24.006435"
           id="rect3011"
           style="fill:#000000;fill-opacity:1;stroke:none" />
        <rect
           clip-path="url(#clipPath3803)"
           rx="2.3145597"
           ry="2.0000153"
           y="735.36224"
           x="-43.003006"
           height="4.0000305"
           width="24.006435"
           id="rect3011-3"
           style="fill:#ffffff;fill-opacity:1;stroke:none" />
        <rect
           transform="matrix(1.0002681,0,0,0.99999995,-47.004078,731.36219)"
           ry="2"
           rx="0.99999881"
           y="5.0000877"
           x="5"
           height="2"
           width="22"
           id="rect3807"
           style="fill:#858585;fill-opacity:1;stroke:none" />
        <path
           transform="matrix(1.0002681,0,0,0.99999995,-48.004345,731.36219)"
           d="m 16,6.0000877 c 0,1.6568543 -1.343146,3 -3,3 -1.656854,0 -3,-1.3431457 -3,-3 0,-1.6568542 1.343146,-3 3,-3 1.656854,0 3,1.3431458 3,3 z"
           sodipodi:ry="3"
           sodipodi:rx="3"
           sodipodi:cy="6.0000877"
           sodipodi:cx="13"
           id="path3809"
           style="fill:#202020;fill-opacity:1;stroke:none"
           sodipodi:type="arc" />
      </g>
      <g
         id="g4547"
         transform="translate(0,-1.0000048)">
        <rect
           rx="2.3145597"
           ry="2.0000153"
           y="755.36224"
           x="-43.003002"
           height="4.0000305"
           width="24.006435"
           id="rect3011-5"
           style="fill:#000000;fill-opacity:1;stroke:none" />
        <rect
           clip-path="url(#clipPath3803-7)"
           rx="2.3145597"
           ry="2.0000153"
           y="735.36224"
           x="-43.003006"
           height="4.0000305"
           width="24.006435"
           id="rect3011-3-2"
           style="fill:#ffffff;fill-opacity:1;stroke:none"
           transform="translate(1.397937e-6,20.000025)" />
        <rect
           ry="1.9999999"
           rx="1.0002669"
           y="756.36224"
           x="-42.002735"
           height="1.9999999"
           width="22.005899"
           id="rect3807-1"
           style="fill:#858585;fill-opacity:1;stroke:none" />
        <path
           transform="matrix(1.0002681,0,0,0.99999995,-46.003809,751.36219)"
           d="m 16,6.0000877 c 0,1.6568543 -1.343146,3 -3,3 -1.656854,0 -3,-1.3431457 -3,-3 0,-1.6568542 1.343146,-3 3,-3 1.656854,0 3,1.3431458 3,3 z"
           sodipodi:ry="3"
           sodipodi:rx="3"
           sodipodi:cy="6.0000877"
           sodipodi:cx="13"
           id="path3809-3"
           style="fill:#202020;fill-opacity:1;stroke:none"
           sodipodi:type="arc" />
      </g>
      <g
         id="g4541">
        <rect
           rx="2.3145597"
           ry="2.0000153"
           y="745.36224"
           x="-43.003002"
           height="4.0000305"
           width="24.006435"
           id="rect3011-4"
           style="fill:#000000;fill-opacity:1;stroke:none" />
        <rect
           clip-path="url(#clipPath3803-8)"
           rx="2.3145597"
           ry="2.0000153"
           y="735.36224"
           x="-43.003006"
           height="4.0000305"
           width="24.006435"
           id="rect3011-3-3"
           style="fill:#ffffff;fill-opacity:1;stroke:none"
           transform="translate(2.6622925e-6,10.000025)" />
        <rect
           ry="1.9999999"
           rx="1.0002669"
           y="746.36224"
           x="-42.002735"
           height="1.9999999"
           width="22.005899"
           id="rect3807-11"
           style="fill:#858585;fill-opacity:1;stroke:none" />
        <path
           transform="matrix(1.0002681,0,0,0.99999995,-39.001932,741.36222)"
           d="m 16,6.0000877 a 3,3 0 1 1 -6,0 3,3 0 1 1 6,0 z"
           sodipodi:ry="3"
           sodipodi:rx="3"
           sodipodi:cy="6.0000877"
           sodipodi:cx="13"
           id="path3809-0"
           style="fill:#202020;fill-opacity:1;stroke:none"
           sodipodi:type="arc" />
      </g>
    </g>
  </g>
</svg>
