<?xml version="1.0" encoding="UTF-8" standalone="no"?>
<!-- Generator: Adobe Illustrator 19.0.0, SVG Export Plug-In . SVG Version: 6.00 Build 0)  -->

<svg
   xmlns:dc="http://purl.org/dc/elements/1.1/"
   xmlns:cc="http://creativecommons.org/ns#"
   xmlns:rdf="http://www.w3.org/1999/02/22-rdf-syntax-ns#"
   xmlns:svg="http://www.w3.org/2000/svg"
   xmlns="http://www.w3.org/2000/svg"
   xmlns:sodipodi="http://sodipodi.sourceforge.net/DTD/sodipodi-0.dtd"
   xmlns:inkscape="http://www.inkscape.org/namespaces/inkscape"
   version="1.1"
   id="Layer_1"
   x="0px"
   y="0px"
   viewBox="0 0 32 32"
   xml:space="preserve"
   sodipodi:docname="trash.svg"
   width="32"
   height="32"
   inkscape:version="0.92.5 (2060ec1f9f, 2020-04-08)"><metadata
   id="metadata51"><rdf:RDF><cc:Work
       rdf:about=""><dc:format>image/svg+xml</dc:format><dc:type
         rdf:resource="http://purl.org/dc/dcmitype/StillImage" /><dc:title></dc:title></cc:Work></rdf:RDF></metadata><defs
   id="defs49" /><sodipodi:namedview
   pagecolor="#ffffff"
   bordercolor="#666666"
   borderopacity="1"
   objecttolerance="10"
   gridtolerance="10"
   guidetolerance="10"
   inkscape:pageopacity="0"
   inkscape:pageshadow="2"
   inkscape:window-width="2496"
   inkscape:window-height="1552"
   id="namedview47"
   showgrid="false"
   inkscape:zoom="41.3125"
   inkscape:cx="15.612708"
   inkscape:cy="16"
   inkscape:window-x="0"
   inkscape:window-y="0"
   inkscape:window-maximized="0"
   inkscape:current-layer="Layer_1" />
<g
   id="g14"
   transform="scale(0.0625)">
	<g
   id="g12">
		<g
   id="g10">
			<path
   d="M 490.667,85.333 H 448.002 448 379.325 L 372.313,57.271 C 363.905,23.609 333.658,0 298.965,0 h -85.931 c -34.693,0 -64.94,23.609 -73.348,57.273 l -7.012,28.06 H 64.002 c 0,0 -10e-4,0 -10e-4,0 0,0 0,0 -0.001,0 H 21.333 C 9.551,85.333 0,94.885 0,106.667 0,118.449 9.551,128 21.333,128 H 43.821 L 61.795,451.53 C 63.683,485.452 91.744,512 125.719,512 h 260.565 c 33.975,0 62.036,-26.548 63.924,-60.468 L 468.183,128 h 22.484 C 502.449,128 512,118.449 512,106.667 512,94.885 502.449,85.333 490.667,85.333 Z M 181.081,67.614 c 3.663,-14.664 16.838,-24.948 31.954,-24.948 h 85.931 c 15.116,0 28.291,10.284 31.953,24.946 l 4.428,17.721 H 176.653 Z m 226.527,381.549 c -0.63,11.311 -9.993,20.17 -21.324,20.17 H 125.719 c -11.33,0 -20.694,-8.859 -21.324,-20.172 L 86.554,128 h 62.78 213.333 62.784 z"
   id="path2"
   inkscape:connector-curvature="0" />
			<path
   d="m 170.667,170.667 c -11.782,0 -21.333,9.551 -21.333,21.333 v 213.333 c 0,11.782 9.551,21.333 21.333,21.333 11.782,0 21.333,-9.551 21.333,-21.333 V 192 c 0,-11.782 -9.551,-21.333 -21.333,-21.333 z"
   id="path4"
   inkscape:connector-curvature="0" />
			<path
   d="m 256,170.667 c -11.782,0 -21.333,9.551 -21.333,21.333 v 213.333 c 0,11.782 9.551,21.333 21.333,21.333 11.782,0 21.333,-9.551 21.333,-21.333 V 192 c 0,-11.782 -9.551,-21.333 -21.333,-21.333 z"
   id="path6"
   inkscape:connector-curvature="0" />
			<path
   d="M 341.333,170.667 C 329.551,170.667 320,180.218 320,192 v 213.333 c 0,11.782 9.551,21.333 21.333,21.333 11.782,0 21.333,-9.551 21.333,-21.333 V 192 c 10e-4,-11.782 -9.551,-21.333 -21.333,-21.333 z"
   id="path8"
   inkscape:connector-curvature="0" />
		</g>
	</g>
</g>
<g
   id="g16"
   transform="scale(0.0625)">
</g>
<g
   id="g18"
   transform="scale(0.0625)">
</g>
<g
   id="g20"
   transform="scale(0.0625)">
</g>
<g
   id="g22"
   transform="scale(0.0625)">
</g>
<g
   id="g24"
   transform="scale(0.0625)">
</g>
<g
   id="g26"
   transform="scale(0.0625)">
</g>
<g
   id="g28"
   transform="scale(0.0625)">
</g>
<g
   id="g30"
   transform="scale(0.0625)">
</g>
<g
   id="g32"
   transform="scale(0.0625)">
</g>
<g
   id="g34"
   transform="scale(0.0625)">
</g>
<g
   id="g36"
   transform="scale(0.0625)">
</g>
<g
   id="g38"
   transform="scale(0.0625)">
</g>
<g
   id="g40"
   transform="scale(0.0625)">
</g>
<g
   id="g42"
   transform="scale(0.0625)">
</g>
<g
   id="g44"
   transform="scale(0.0625)">
</g>
</svg>