<?xml version="1.0" encoding="UTF-8" standalone="no"?>
<!-- Created with Inkscape (http://www.inkscape.org/) -->

<svg
   version="1.1"
   width="40"
   height="40"
   id="svg2"
   xml:space="preserve"
   sodipodi:docname="photohoard.svg"
   inkscape:version="1.2 (1:1.2+202206011327+fc4e4096c5)"
   xmlns:inkscape="http://www.inkscape.org/namespaces/inkscape"
   xmlns:sodipodi="http://sodipodi.sourceforge.net/DTD/sodipodi-0.dtd"
   xmlns="http://www.w3.org/2000/svg"
   xmlns:svg="http://www.w3.org/2000/svg"
   xmlns:rdf="http://www.w3.org/1999/02/22-rdf-syntax-ns#"
   xmlns:cc="http://creativecommons.org/ns#"
   xmlns:dc="http://purl.org/dc/elements/1.1/"><sodipodi:namedview
     id="namedview15"
     pagecolor="#ffffff"
     bordercolor="#666666"
     borderopacity="1.0"
     inkscape:showpageshadow="2"
     inkscape:pageopacity="0.0"
     inkscape:pagecheckerboard="0"
     inkscape:deskcolor="#d1d1d1"
     showgrid="false"
     inkscape:zoom="13.650782"
     inkscape:cx="20.07211"
     inkscape:cy="24.650602"
     inkscape:window-width="1920"
     inkscape:window-height="1059"
     inkscape:window-x="0"
     inkscape:window-y="0"
     inkscape:window-maximized="1"
     inkscape:current-layer="svg2" /><metadata
     id="metadata8"><rdf:RDF><cc:Work
         rdf:about=""><dc:format>image/svg+xml</dc:format><dc:type
           rdf:resource="http://purl.org/dc/dcmitype/StillImage" /></cc:Work></rdf:RDF></metadata><defs
     id="defs6" /><rect
     style="fill:#ffffff;stroke:#000000;stroke-width:1.01193"
     id="rect717-3"
     width="19.45879"
     height="15.372474"
     x="24.102173"
     y="24.057825"
     transform="matrix(1,0,-0.21520767,0.97656831,0,0)" /><rect
     style="fill:#ffffff;stroke:#000000;stroke-width:1.01192"
     id="rect717-5"
     width="19.458786"
     height="15.372483"
     x="21.220682"
     y="19.961843"
     transform="matrix(1,0,-0.21520753,0.97656834,0,0)" /><rect
     style="fill:#ffffff;stroke:#000000;stroke-width:1.01193"
     id="rect717"
     width="19.45879"
     height="15.372474"
     x="18.339165"
     y="15.86571"
     transform="matrix(1,0,-0.21520767,0.97656831,0,0)" /><g
     id="g663"
     transform="translate(17.50125,-7.2463315)"><path
       d="m 7.5,17.500318 c 0,0.55125 -0.44875,1.00125 -1.00125,1.00125 -0.55125,0 -1.00125,-0.45 -1.00125,-1.00125 0,-0.5525 0.45,-1.00125 1.00125,-1.00125 0.5525,0 1.00125,0.44875 1.00125,1.00125 z"
       inkscape:connector-curvature="0"
       id="path24"
       style="fill:#ffffff;fill-opacity:1;fill-rule:evenodd;stroke:none;stroke-width:1.25" /><g
       transform="matrix(1.25,0,0,1.25,-17.5,-1.7511685)"
       id="g14"><path
         d="M 10.535,8.398 C 10,8.398 8.934,10.801 8.398,10.801 H 7.066 C 6.801,10.801 6.801,10 6.535,10 H 4.133 C 3.867,10 3.867,10.801 3.602,10.801 H 3.066 c -0.8,0 -1.867,1.066 -1.867,1.867 v 10.398 c 0,0.801 1.067,2.133 1.867,2.133 h 18.668 c 0.801,0 1.868,-1.332 1.868,-2.133 V 12.668 c 0,-0.801 -1.047,-1.871 -1.868,-1.867 -1.066,0 -1.336,0 -2.132,0 -0.536,0 -1.602,-2.403 -2.137,-2.403 z"
         inkscape:connector-curvature="0"
         id="path16"
         style="fill:#444444;fill-opacity:1;fill-rule:nonzero;stroke:#000000;stroke-width:0.8;stroke-linecap:square;stroke-linejoin:round;stroke-miterlimit:4;stroke-dasharray:none;stroke-opacity:1" /></g><g
       transform="matrix(1.25,0,0,1.25,-17.5,-1.7511685)"
       id="g18"><path
         d="m 18.801,17.602 c 0,2.648 -2.149,4.796 -4.801,4.796 -2.652,0 -4.801,-2.148 -4.801,-4.796 0,-2.653 2.149,-4.801 4.801,-4.801 2.652,0 4.801,2.148 4.801,4.801 z"
         inkscape:connector-curvature="0"
         id="path20"
         style="fill:#858585;fill-opacity:1;fill-rule:nonzero;stroke:#000000;stroke-width:0.8;stroke-linecap:square;stroke-linejoin:round;stroke-miterlimit:4;stroke-dasharray:none;stroke-opacity:1" /></g><path
       d="m -10,15.749149 c 0,0.55125 -0.44875,1.00125 -1.00125,1.00125 -0.55125,0 -1.00125,-0.45 -1.00125,-1.00125 0,-0.5525 0.45,-1.00125 1.00125,-1.00125 0.5525,0 1.00125,0.44875 1.00125,1.00125 z"
       inkscape:connector-curvature="0"
       id="path22-7"
       style="fill:#aaaaaa;fill-opacity:1;fill-rule:evenodd;stroke:none;stroke-width:1.25" /></g></svg>
